<svg id="svg" version="1.1" xmlns="http://www.w3.org/2000/svg" xmlns:xlink="http://www.w3.org/1999/xlink" width="400" height="400" viewBox="0, 0, 400,400"><g id="svgg"><path id="path0" d="M239.789 180.410 C 190.073 230.124,149.190 270.800,148.937 270.800 C 148.684 270.800,132.543 254.870,113.066 235.400 C 93.590 215.930,77.507 200.000,77.325 200.000 C 77.144 200.000,71.625 205.372,65.061 211.939 L 53.127 223.878 100.799 271.539 C 127.019 297.752,148.681 319.200,148.937 319.200 C 149.435 319.200,353.698 115.106,353.947 114.359 C 354.029 114.114,348.715 108.538,342.139 101.967 L 330.182 90.020 239.789 180.410 " stroke="none" fill="#fafbfa" fill-rule="evenodd"></path><path id="path1" d="M0.000 200.000 L 0.000 400.000 200.000 400.000 L 400.000 400.000 400.000 200.000 L 400.000 0.000 200.000 0.000 L 0.000 0.000 0.000 200.000 M343.041 101.628 C 351.271 109.851,354.800 113.640,354.800 114.250 C 354.800 115.305,149.917 320.400,148.864 320.400 C 147.976 320.400,52.400 224.797,52.400 223.909 C 52.400 222.857,76.277 199.200,77.338 199.201 C 77.947 199.201,88.533 209.534,113.400 234.401 C 132.760 253.760,148.743 269.600,148.919 269.600 C 149.094 269.600,189.713 229.120,239.183 179.645 C 288.653 130.170,329.370 89.604,329.665 89.498 C 330.553 89.178,330.867 89.463,343.041 101.628 " stroke="none" fill="#349c34" fill-rule="evenodd"></path><path id="path2" d="M342.285 101.317 C 350.227 109.225,354.400 113.659,354.400 114.191 C 354.400 115.094,149.782 320.000,148.881 320.000 C 148.201 320.000,52.800 224.586,52.800 223.906 C 52.800 223.074,76.531 199.600,77.372 199.600 C 77.793 199.600,80.938 202.400,84.671 206.100 C 88.278 209.675,91.358 212.684,91.515 212.786 C 91.672 212.888,88.742 209.873,85.004 206.086 C 80.363 201.382,77.934 199.200,77.342 199.200 C 76.277 199.200,52.400 222.854,52.400 223.909 C 52.400 224.797,147.976 320.400,148.864 320.400 C 149.917 320.400,354.800 115.305,354.800 114.250 C 354.800 113.462,332.419 90.514,330.726 89.567 C 330.420 89.395,335.621 94.683,342.285 101.317 M239.200 179.609 C 189.810 229.074,149.220 269.558,148.999 269.573 C 148.778 269.588,135.909 256.910,120.400 241.400 C 104.891 225.890,92.099 213.200,91.972 213.200 C 91.806 213.200,148.167 269.688,148.927 270.283 C 148.986 270.329,189.706 229.694,239.417 179.983 C 289.127 130.273,329.619 89.616,329.400 89.637 C 329.180 89.657,288.590 130.144,239.200 179.609 " stroke="none" fill="#58a458" fill-rule="evenodd"></path><path id="path3" d="M327.785 91.700 L 325.800 93.800 327.992 91.800 C 329.197 90.700,330.262 89.755,330.358 89.700 C 330.455 89.645,330.362 89.600,330.152 89.600 C 329.942 89.600,328.877 90.545,327.785 91.700 M335.000 94.400 C 336.750 96.160,338.271 97.600,338.381 97.600 C 338.491 97.600,337.150 96.160,335.400 94.400 C 333.650 92.640,332.129 91.200,332.019 91.200 C 331.909 91.200,333.250 92.640,335.000 94.400 M318.992 100.500 L 315.400 104.200 319.100 100.608 C 322.536 97.272,322.982 96.800,322.692 96.800 C 322.632 96.800,320.967 98.465,318.992 100.500 M343.600 103.000 C 346.343 105.750,348.678 108.000,348.788 108.000 C 348.898 108.000,346.743 105.750,344.000 103.000 C 341.257 100.250,338.922 98.000,338.812 98.000 C 338.702 98.000,340.857 100.250,343.600 103.000 M311.389 108.100 L 308.600 111.000 311.500 108.211 C 314.194 105.620,314.583 105.200,314.289 105.200 C 314.228 105.200,312.923 106.505,311.389 108.100 M351.614 111.010 C 353.036 112.556,354.282 113.764,354.381 113.695 C 354.481 113.627,353.318 112.362,351.796 110.885 L 349.028 108.200 351.614 111.010 M306.581 112.900 L 305.000 114.600 306.700 113.019 C 308.281 111.548,308.584 111.200,308.281 111.200 C 308.216 111.200,307.451 111.965,306.581 112.900 M286.400 182.700 L 218.600 250.600 286.500 182.800 C 323.845 145.511,354.400 114.956,354.400 114.900 C 354.400 114.621,349.435 119.572,286.400 182.700 M300.192 119.300 L 296.600 123.000 300.300 119.408 C 303.736 116.072,304.182 115.600,303.892 115.600 C 303.832 115.600,302.167 117.265,300.192 119.300 M291.600 127.800 C 290.628 128.790,289.923 129.600,290.033 129.600 C 290.143 129.600,291.028 128.790,292.000 127.800 C 292.972 126.810,293.677 126.000,293.567 126.000 C 293.457 126.000,292.572 126.810,291.600 127.800 M287.781 131.700 L 286.200 133.400 287.900 131.819 C 288.835 130.949,289.600 130.184,289.600 130.119 C 289.600 129.816,289.252 130.119,287.781 131.700 M280.600 138.800 C 277.967 141.440,275.903 143.600,276.013 143.600 C 276.123 143.600,278.367 141.440,281.000 138.800 C 283.633 136.160,285.697 134.000,285.587 134.000 C 285.477 134.000,283.233 136.160,280.600 138.800 M270.992 148.500 L 267.400 152.200 271.100 148.608 C 274.536 145.272,274.982 144.800,274.692 144.800 C 274.632 144.800,272.967 146.465,270.992 148.500 M262.800 156.600 C 261.828 157.590,261.123 158.400,261.233 158.400 C 261.343 158.400,262.228 157.590,263.200 156.600 C 264.172 155.610,264.877 154.800,264.767 154.800 C 264.657 154.800,263.772 155.610,262.800 156.600 M258.800 160.600 C 257.828 161.590,257.123 162.400,257.233 162.400 C 257.343 162.400,258.228 161.590,259.200 160.600 C 260.172 159.610,260.877 158.800,260.767 158.800 C 260.657 158.800,259.772 159.610,258.800 160.600 M253.200 166.200 C 251.561 167.850,250.310 169.200,250.420 169.200 C 250.530 169.200,251.961 167.850,253.600 166.200 C 255.239 164.550,256.490 163.200,256.380 163.200 C 256.270 163.200,254.839 164.550,253.200 166.200 M248.181 171.300 L 246.600 173.000 248.300 171.419 C 249.881 169.948,250.184 169.600,249.881 169.600 C 249.816 169.600,249.051 170.365,248.181 171.300 M242.800 176.600 C 241.161 178.250,239.910 179.600,240.020 179.600 C 240.130 179.600,241.561 178.250,243.200 176.600 C 244.839 174.950,246.090 173.600,245.980 173.600 C 245.870 173.600,244.439 174.950,242.800 176.600 M234.591 184.900 L 231.400 188.200 234.700 185.009 C 237.765 182.046,238.182 181.600,237.891 181.600 C 237.830 181.600,236.345 183.085,234.591 184.900 M229.381 190.100 L 227.800 191.800 229.500 190.219 C 231.081 188.748,231.384 188.400,231.081 188.400 C 231.016 188.400,230.251 189.165,229.381 190.100 M224.000 195.400 C 222.361 197.050,221.110 198.400,221.220 198.400 C 221.330 198.400,222.761 197.050,224.400 195.400 C 226.039 193.750,227.290 192.400,227.180 192.400 C 227.070 192.400,225.639 193.750,224.000 195.400 M218.981 200.500 L 217.400 202.200 219.100 200.619 C 220.681 199.148,220.984 198.800,220.681 198.800 C 220.616 198.800,219.851 199.565,218.981 200.500 M64.448 211.752 C 57.081 219.122,52.782 223.708,52.919 224.052 C 53.092 224.487,53.143 224.476,53.168 224.003 C 53.186 223.674,58.464 218.139,64.897 211.703 C 71.331 205.266,76.505 200.000,76.395 200.000 C 76.285 200.000,70.909 205.288,64.448 211.752 M79.600 201.400 C 80.346 202.170,81.047 202.800,81.157 202.800 C 81.267 202.800,80.746 202.170,80.000 201.400 C 79.254 200.630,78.553 200.000,78.443 200.000 C 78.333 200.000,78.854 200.630,79.600 201.400 M213.791 205.700 L 210.600 209.000 213.900 205.809 C 216.965 202.846,217.382 202.400,217.091 202.400 C 217.030 202.400,215.545 203.885,213.791 205.700 M82.800 204.600 C 83.546 205.370,84.247 206.000,84.357 206.000 C 84.467 206.000,83.946 205.370,83.200 204.600 C 82.454 203.830,81.753 203.200,81.643 203.200 C 81.533 203.200,82.054 203.830,82.800 204.600 M86.200 208.000 C 87.059 208.880,87.852 209.600,87.962 209.600 C 88.072 209.600,87.459 208.880,86.600 208.000 C 85.741 207.120,84.948 206.400,84.838 206.400 C 84.728 206.400,85.341 207.120,86.200 208.000 M206.392 213.100 L 202.600 217.000 206.500 213.208 C 210.122 209.686,210.582 209.200,210.292 209.200 C 210.233 209.200,208.478 210.955,206.392 213.100 M89.800 211.600 C 90.659 212.480,91.452 213.200,91.562 213.200 C 91.672 213.200,91.059 212.480,90.200 211.600 C 89.341 210.720,88.548 210.000,88.438 210.000 C 88.328 210.000,88.941 210.720,89.800 211.600 M97.400 219.200 C 100.033 221.840,102.277 224.000,102.387 224.000 C 102.497 224.000,100.433 221.840,97.800 219.200 C 95.167 216.560,92.923 214.400,92.813 214.400 C 92.703 214.400,94.767 216.560,97.400 219.200 M200.181 219.300 L 198.600 221.000 200.300 219.419 C 201.881 217.948,202.184 217.600,201.881 217.600 C 201.816 217.600,201.051 218.365,200.181 219.300 M195.200 224.200 C 193.561 225.850,192.310 227.200,192.420 227.200 C 192.530 227.200,193.961 225.850,195.600 224.200 C 197.239 222.550,198.490 221.200,198.380 221.200 C 198.270 221.200,196.839 222.550,195.200 224.200 M106.600 228.400 C 108.571 230.380,110.273 232.000,110.383 232.000 C 110.493 232.000,108.971 230.380,107.000 228.400 C 105.029 226.420,103.327 224.800,103.217 224.800 C 103.107 224.800,104.629 226.420,106.600 228.400 M56.000 227.800 C 56.746 228.570,57.447 229.200,57.557 229.200 C 57.667 229.200,57.146 228.570,56.400 227.800 C 55.654 227.030,54.953 226.400,54.843 226.400 C 54.733 226.400,55.254 227.030,56.000 227.800 M189.781 229.700 L 188.200 231.400 189.900 229.819 C 191.481 228.348,191.784 228.000,191.481 228.000 C 191.416 228.000,190.651 228.765,189.781 229.700 M184.800 234.600 C 183.161 236.250,181.910 237.600,182.020 237.600 C 182.130 237.600,183.561 236.250,185.200 234.600 C 186.839 232.950,188.090 231.600,187.980 231.600 C 187.870 231.600,186.439 232.950,184.800 234.600 M115.800 237.600 C 118.433 240.240,120.677 242.400,120.787 242.400 C 120.897 242.400,118.833 240.240,116.200 237.600 C 113.567 234.960,111.323 232.800,111.213 232.800 C 111.103 232.800,113.167 234.960,115.800 237.600 M179.200 240.200 C 178.228 241.190,177.523 242.000,177.633 242.000 C 177.743 242.000,178.628 241.190,179.600 240.200 C 180.572 239.210,181.277 238.400,181.167 238.400 C 181.057 238.400,180.172 239.210,179.200 240.200 M175.200 244.200 C 174.228 245.190,173.523 246.000,173.633 246.000 C 173.743 246.000,174.628 245.190,175.600 244.200 C 176.572 243.210,177.277 242.400,177.167 242.400 C 177.057 242.400,176.172 243.210,175.200 244.200 M122.000 243.710 C 122.000 243.771,123.395 245.166,125.100 246.810 L 128.200 249.800 125.210 246.700 C 122.433 243.821,122.000 243.417,122.000 243.710 M72.800 244.525 C 72.800 244.594,73.385 245.179,74.100 245.825 L 75.400 247.000 74.225 245.700 C 73.130 244.488,72.800 244.216,72.800 244.525 M166.792 252.700 L 163.000 256.600 166.900 252.808 C 169.045 250.722,170.800 248.967,170.800 248.908 C 170.800 248.618,170.314 249.078,166.792 252.700 M129.600 251.400 C 130.346 252.170,131.047 252.800,131.157 252.800 C 131.267 252.800,130.746 252.170,130.000 251.400 C 129.254 250.630,128.553 250.000,128.443 250.000 C 128.333 250.000,128.854 250.630,129.600 251.400 M183.799 285.300 L 149.400 319.800 183.900 285.401 C 215.972 253.422,218.579 250.800,218.299 250.800 C 218.244 250.800,202.719 266.325,183.799 285.300 M134.800 256.600 C 136.660 258.470,138.272 260.000,138.382 260.000 C 138.492 260.000,137.060 258.470,135.200 256.600 C 133.340 254.730,131.728 253.200,131.618 253.200 C 131.508 253.200,132.940 254.730,134.800 256.600 M157.400 262.000 C 154.767 264.640,152.703 266.800,152.813 266.800 C 152.923 266.800,155.167 264.640,157.800 262.000 C 160.433 259.360,162.497 257.200,162.387 257.200 C 162.277 257.200,160.033 259.360,157.400 262.000 M143.200 265.000 C 145.060 266.870,146.672 268.400,146.782 268.400 C 146.892 268.400,145.460 266.870,143.600 265.000 C 141.740 263.130,140.128 261.600,140.018 261.600 C 139.908 261.600,141.340 263.130,143.200 265.000 M150.378 269.100 L 149.000 270.600 150.500 269.222 C 151.896 267.938,152.184 267.600,151.878 267.600 C 151.812 267.600,151.137 268.275,150.378 269.100 M124.800 296.600 C 125.546 297.370,126.247 298.000,126.357 298.000 C 126.467 298.000,125.946 297.370,125.200 296.600 C 124.454 295.830,123.753 295.200,123.643 295.200 C 123.533 295.200,124.054 295.830,124.800 296.600 M143.200 315.000 C 143.946 315.770,144.647 316.400,144.757 316.400 C 144.867 316.400,144.346 315.770,143.600 315.000 C 142.854 314.230,142.153 313.600,142.043 313.600 C 141.933 313.600,142.454 314.230,143.200 315.000 " stroke="none" fill="#94bc94" fill-rule="evenodd"></path><path id="path4" d="M239.772 180.008 C 190.287 229.512,149.717 270.147,149.617 270.308 C 149.516 270.468,190.061 230.010,239.717 180.400 C 289.372 130.791,330.000 90.156,330.000 90.100 C 330.000 89.776,321.870 97.877,239.772 180.008 M330.402 90.029 C 330.401 90.155,335.542 95.375,341.827 101.629 C 348.112 107.883,353.442 113.340,353.671 113.755 C 354.035 114.415,351.256 117.354,331.544 137.155 L 309.000 159.800 331.700 137.201 C 344.185 124.772,354.400 114.428,354.400 114.215 C 354.400 114.002,349.001 108.421,342.402 101.814 C 335.803 95.206,330.403 89.903,330.402 90.029 M275.999 192.700 L 243.400 225.400 276.100 192.801 C 306.499 162.496,308.979 160.000,308.699 160.000 C 308.644 160.000,293.929 174.715,275.999 192.700 M64.997 211.700 L 53.000 223.800 65.100 211.803 C 76.345 200.653,77.380 199.600,77.097 199.600 C 77.041 199.600,71.596 205.045,64.997 211.700 M113.066 235.400 C 132.543 254.870,148.598 270.800,148.744 270.800 C 148.891 270.800,133.077 254.870,113.602 235.400 C 94.128 215.930,78.073 200.000,77.925 200.000 C 77.776 200.000,93.590 215.930,113.066 235.400 M53.200 224.276 C 53.200 225.042,148.309 319.676,148.943 319.541 C 149.490 319.424,211.270 257.998,222.103 246.800 C 223.912 244.930,208.293 260.455,187.395 281.300 C 166.497 302.145,149.190 319.200,148.935 319.200 C 148.680 319.200,127.035 297.769,100.835 271.575 C 74.636 245.381,53.200 224.097,53.200 224.276 M234.197 234.500 L 225.400 243.400 234.300 234.603 C 239.195 229.765,243.200 225.760,243.200 225.703 C 243.200 225.420,242.370 226.230,234.197 234.500 " stroke="none" fill="#9cc09c" fill-rule="evenodd"></path></g></svg>