<svg id="svg" version="1.1" xmlns="http://www.w3.org/2000/svg" xmlns:xlink="http://www.w3.org/1999/xlink" width="400" height="400" viewBox="0, 0, 400,400"><g id="svgg"><path id="path0" d="M158.900 43.775 C 158.405 44.003,158.000 44.327,158.000 44.495 C 158.000 44.663,157.767 44.800,157.483 44.800 C 156.770 44.800,153.936 47.898,153.093 49.600 C 152.489 50.817,152.386 52.538,152.300 62.800 L 152.200 74.600 122.361 74.800 C 97.171 74.969,92.404 75.090,91.761 75.578 C 86.117 79.867,86.359 78.687,86.489 101.306 L 86.600 120.600 87.938 122.527 C 88.674 123.587,89.574 124.567,89.938 124.705 C 90.302 124.842,90.831 125.183,91.113 125.462 C 91.395 125.741,92.295 126.079,93.113 126.213 C 93.931 126.348,94.960 126.628,95.400 126.836 C 96.771 127.484,304.543 127.097,307.000 126.441 C 309.571 125.756,312.070 123.715,313.149 121.420 C 313.980 119.652,314.000 119.155,314.000 100.617 C 314.000 79.389,314.135 80.458,311.073 77.485 C 308.338 74.830,310.672 75.020,278.000 74.790 C 261.610 74.675,248.155 74.540,248.100 74.490 C 248.045 74.441,248.000 69.083,248.000 62.584 C 248.000 48.480,247.517 46.998,242.000 44.171 C 240.339 43.319,160.710 42.940,158.900 43.775 M227.112 69.289 C 227.222 74.298,227.209 74.382,226.312 74.600 C 225.810 74.721,213.700 74.771,199.400 74.710 L 173.400 74.600 173.287 69.823 C 173.224 67.196,173.264 64.810,173.375 64.520 C 173.540 64.091,178.508 64.013,200.289 64.097 L 227.000 64.200 227.112 69.289 M100.400 153.133 C 100.400 156.397,100.535 159.201,100.700 159.365 C 100.865 159.529,101.224 165.994,101.499 173.731 C 101.773 181.469,102.270 194.370,102.604 202.400 C 102.938 210.430,103.433 223.331,103.705 231.068 C 103.977 238.806,104.335 245.271,104.500 245.435 C 104.665 245.599,104.800 248.865,104.800 252.693 C 104.800 256.521,104.957 259.956,105.149 260.326 C 105.341 260.697,105.726 270.540,106.003 282.200 C 106.281 293.860,106.664 303.571,106.854 303.780 C 107.044 303.989,107.200 307.274,107.200 311.080 C 107.200 315.427,107.349 318.000,107.600 318.000 C 107.847 318.000,108.007 320.178,108.017 323.700 C 108.069 340.976,108.861 351.584,110.100 351.597 C 110.265 351.599,110.400 351.856,110.400 352.169 C 110.400 352.976,112.614 355.089,114.430 356.015 C 116.806 357.228,283.547 357.253,285.916 356.041 C 288.974 354.477,291.200 351.360,291.200 348.640 C 291.200 347.874,291.380 347.136,291.600 347.000 C 291.841 346.851,292.000 344.061,292.000 339.971 C 292.000 336.241,292.169 332.877,292.375 332.495 C 292.581 332.113,292.972 322.296,293.244 310.681 C 293.516 299.065,293.887 289.470,294.069 289.357 C 294.251 289.245,294.400 285.844,294.400 281.800 C 294.400 277.330,294.557 274.350,294.800 274.200 C 295.042 274.050,295.200 271.196,295.200 266.976 C 295.200 263.139,295.347 260.000,295.527 260.000 C 295.706 260.000,296.073 250.595,296.342 239.100 C 296.610 227.605,296.995 217.570,297.197 216.800 C 297.399 216.030,297.756 209.190,297.989 201.600 C 298.870 172.965,299.410 159.654,299.700 159.365 C 299.865 159.201,300.000 156.397,300.000 153.133 L 300.000 147.200 200.200 147.200 L 100.400 147.200 100.400 153.133 M162.040 179.255 C 162.788 179.506,163.772 180.046,164.226 180.455 C 164.680 180.865,165.247 181.200,165.486 181.200 C 166.027 181.200,167.534 183.613,168.483 186.000 C 169.337 188.147,169.618 314.679,168.775 317.713 C 167.822 321.148,164.770 324.401,162.333 324.580 C 162.187 324.591,161.932 324.735,161.767 324.900 C 159.597 327.069,152.541 323.877,150.184 319.659 L 149.200 317.899 149.200 252.543 C 149.200 201.403,149.309 186.829,149.700 185.541 C 151.123 180.858,157.352 177.685,162.040 179.255 M204.629 179.917 C 206.869 181.065,207.629 181.875,209.100 184.678 L 210.400 187.156 210.394 251.878 C 210.389 302.205,210.278 316.915,209.894 318.018 C 207.181 325.802,198.360 327.786,192.882 321.843 C 191.957 320.839,191.200 319.664,191.200 319.233 C 191.200 318.801,191.020 318.336,190.800 318.200 C 190.536 318.037,190.400 295.621,190.400 252.251 L 190.400 186.550 191.361 184.575 C 193.819 179.520,199.776 177.429,204.629 179.917 M245.600 179.903 C 247.888 180.965,249.687 182.901,250.535 185.213 C 251.648 188.247,251.546 316.889,250.430 319.322 C 247.149 326.467,237.568 327.332,233.172 320.880 C 232.527 319.934,232.000 318.910,232.000 318.604 C 232.000 318.298,231.820 317.936,231.600 317.800 C 231.336 317.637,231.200 295.402,231.200 252.396 L 231.200 187.239 232.699 184.369 C 233.524 182.790,234.469 181.404,234.799 181.289 C 235.130 181.173,235.703 180.819,236.074 180.501 C 238.183 178.693,242.421 178.427,245.600 179.903 " stroke="none" fill="#fcfbfb" fill-rule="evenodd"></path><path id="path1" d="M0.000 200.000 L 0.000 400.000 200.000 400.000 L 400.000 400.000 400.000 200.000 L 400.000 0.000 200.000 0.000 L 0.000 0.000 0.000 200.000 M241.600 43.200 C 241.600 43.420,241.887 43.600,242.238 43.600 C 243.713 43.600,246.510 46.186,247.947 48.878 C 248.762 50.404,248.800 50.999,248.800 62.238 L 248.800 74.000 278.000 74.000 C 297.200 74.000,307.200 74.137,307.200 74.400 C 307.200 74.620,307.562 74.800,308.005 74.800 C 309.173 74.800,312.000 76.559,312.000 77.285 C 312.000 77.455,312.540 78.109,313.200 78.740 C 313.860 79.371,314.400 80.172,314.400 80.520 C 314.400 80.868,314.580 81.264,314.800 81.400 C 315.057 81.559,315.200 88.295,315.200 100.295 C 315.200 119.662,315.099 120.981,313.504 122.447 C 313.117 122.803,312.800 123.311,312.800 123.575 C 312.800 124.222,311.787 125.200,311.117 125.200 C 310.820 125.200,310.317 125.560,310.000 126.000 C 309.683 126.440,309.114 126.800,308.735 126.800 C 308.357 126.800,307.936 126.980,307.800 127.200 C 307.636 127.465,271.404 127.600,200.400 127.600 C 129.396 127.600,93.164 127.465,93.000 127.200 C 92.864 126.980,92.358 126.799,91.876 126.798 C 91.394 126.797,90.425 126.257,89.722 125.598 C 89.019 124.939,88.285 124.400,88.092 124.400 C 87.899 124.400,87.259 123.357,86.670 122.082 L 85.600 119.764 85.600 100.482 C 85.600 87.894,85.739 81.200,86.000 81.200 C 86.220 81.200,86.400 80.779,86.400 80.264 C 86.400 79.174,89.589 75.600,90.560 75.600 C 90.912 75.600,91.200 75.420,91.200 75.200 C 91.200 74.980,91.549 74.800,91.976 74.800 C 92.403 74.800,92.864 74.620,93.000 74.400 C 93.161 74.139,103.471 74.000,122.624 74.000 L 152.000 74.000 152.000 61.774 C 152.000 53.938,152.152 49.263,152.423 48.756 C 153.120 47.454,156.429 44.193,156.946 44.298 C 157.210 44.351,157.685 44.036,158.002 43.598 C 158.655 42.691,241.600 42.296,241.600 43.200 M173.600 69.600 L 173.600 74.000 200.000 74.000 L 226.400 74.000 226.400 69.600 L 226.400 65.200 200.000 65.200 L 173.600 65.200 173.600 69.600 M300.168 146.527 C 300.953 147.101,300.742 172.941,299.948 173.432 C 299.757 173.550,299.600 176.967,299.600 181.024 C 299.600 185.675,299.452 188.400,299.200 188.400 C 298.949 188.400,298.800 190.992,298.800 195.376 C 298.800 199.596,298.642 202.450,298.400 202.600 C 298.145 202.757,298.000 208.063,298.000 217.200 C 298.000 226.337,297.855 231.643,297.600 231.800 C 297.358 231.949,297.200 234.796,297.200 239.000 C 297.200 243.204,297.042 246.051,296.800 246.200 C 296.558 246.349,296.400 249.196,296.400 253.400 C 296.400 257.604,296.242 260.451,296.000 260.600 C 295.746 260.757,295.600 265.930,295.600 274.800 C 295.600 283.670,295.454 288.843,295.200 289.000 C 294.957 289.150,294.800 292.137,294.800 296.624 C 294.800 301.275,294.652 304.000,294.400 304.000 C 294.149 304.000,294.000 306.592,294.000 310.976 C 294.000 315.196,293.842 318.050,293.600 318.200 C 293.357 318.350,293.200 321.337,293.200 325.824 C 293.200 330.475,293.052 333.200,292.800 333.200 C 292.546 333.200,292.397 336.306,292.391 341.700 C 292.383 349.520,292.320 350.280,291.600 351.200 C 291.170 351.750,290.814 352.416,290.809 352.681 C 290.804 352.945,290.141 353.801,289.336 354.583 C 286.396 357.439,294.562 357.200,199.797 357.200 L 114.117 357.200 113.038 356.200 C 112.444 355.650,111.813 355.200,111.634 355.200 C 111.326 355.200,109.954 353.254,108.889 351.305 C 108.620 350.813,108.400 349.688,108.400 348.805 C 108.400 347.922,108.220 347.200,108.000 347.200 C 107.749 347.200,107.600 344.608,107.600 340.224 C 107.600 336.004,107.442 333.150,107.200 333.000 C 106.946 332.843,106.800 327.604,106.800 318.600 C 106.800 309.596,106.654 304.357,106.400 304.200 C 106.157 304.050,106.000 301.063,106.000 296.576 C 106.000 291.925,105.852 289.200,105.600 289.200 C 105.348 289.200,105.200 286.541,105.200 282.024 C 105.200 277.671,105.043 274.750,104.800 274.600 C 104.558 274.451,104.400 271.604,104.400 267.400 C 104.400 263.196,104.242 260.349,104.000 260.200 C 103.746 260.043,103.600 254.937,103.600 246.200 C 103.600 237.463,103.454 232.357,103.200 232.200 C 102.957 232.050,102.800 229.137,102.800 224.800 C 102.800 220.463,102.643 217.550,102.400 217.400 C 102.157 217.250,102.000 214.270,102.000 209.800 C 102.000 205.756,101.849 202.354,101.664 202.240 C 101.479 202.126,101.091 192.478,100.800 180.800 C 100.509 169.122,100.121 159.474,99.936 159.360 C 99.201 158.906,99.540 146.875,100.300 146.432 C 101.458 145.757,299.244 145.851,300.168 146.527 M158.000 179.600 C 158.000 179.820,157.460 180.000,156.800 180.000 C 156.140 180.000,155.600 180.158,155.600 180.351 C 155.600 180.545,155.053 180.930,154.384 181.207 C 153.715 181.484,152.545 182.438,151.784 183.327 L 150.400 184.944 150.400 251.996 L 150.400 319.047 152.072 320.939 C 152.991 321.979,154.341 323.114,155.072 323.461 C 155.802 323.807,156.400 324.251,156.400 324.446 C 156.400 324.936,160.695 324.894,161.000 324.400 C 161.136 324.180,161.687 324.000,162.224 324.000 C 162.761 324.000,163.200 323.820,163.200 323.600 C 163.200 323.380,163.388 323.200,163.617 323.200 C 164.538 323.200,167.600 319.361,167.600 318.206 C 167.600 317.899,167.780 317.536,168.000 317.400 C 168.264 317.237,168.400 295.164,168.400 252.480 L 168.400 187.807 166.955 184.883 C 165.740 182.424,165.263 181.852,163.955 181.285 C 163.100 180.914,162.400 180.474,162.400 180.306 C 162.400 180.138,162.040 180.000,161.600 180.000 C 161.160 180.000,160.800 179.820,160.800 179.600 C 160.800 179.380,160.170 179.200,159.400 179.200 C 158.630 179.200,158.000 179.380,158.000 179.600 M198.800 179.600 C 198.800 179.820,198.547 180.000,198.238 180.000 C 197.608 180.000,194.419 181.581,193.800 182.200 C 193.580 182.420,192.815 183.750,192.100 185.156 L 190.800 187.712 190.800 252.233 C 190.800 294.815,190.936 316.837,191.200 317.000 C 191.420 317.136,191.600 317.599,191.600 318.029 C 191.600 319.543,194.625 323.200,195.878 323.200 C 196.165 323.200,196.401 323.335,196.403 323.500 C 196.405 323.665,196.891 324.025,197.483 324.300 C 198.765 324.895,202.800 324.971,202.800 324.400 C 202.800 324.180,203.070 324.000,203.400 324.000 C 203.730 324.000,204.000 323.820,204.000 323.600 C 204.000 323.380,204.233 323.200,204.517 323.200 C 205.264 323.200,208.280 319.997,208.777 318.674 C 209.351 317.147,209.374 185.600,208.800 185.600 C 208.580 185.600,208.400 185.403,208.400 185.162 C 208.400 183.748,204.046 180.000,202.404 180.000 C 201.988 180.000,201.536 179.820,201.400 179.600 C 201.264 179.380,200.623 179.200,199.976 179.200 C 199.329 179.200,198.800 179.380,198.800 179.600 M240.000 179.600 C 240.000 179.820,239.636 180.000,239.191 180.000 C 237.160 180.000,233.621 183.461,232.818 186.234 C 232.486 187.381,232.396 205.310,232.482 253.216 L 232.600 318.632 233.994 320.416 C 235.937 322.901,236.256 323.200,236.971 323.200 C 237.317 323.200,237.600 323.380,237.600 323.600 C 237.600 323.820,237.960 324.000,238.400 324.000 C 238.840 324.000,239.200 324.180,239.200 324.400 C 239.200 324.620,240.190 324.800,241.400 324.800 C 242.610 324.800,243.600 324.620,243.600 324.400 C 243.600 324.180,243.960 324.000,244.400 324.000 C 244.840 324.000,245.200 323.820,245.200 323.600 C 245.200 323.380,245.445 323.200,245.745 323.200 C 246.532 323.200,248.225 321.391,249.392 319.303 L 250.400 317.499 250.394 252.450 C 250.389 201.298,250.281 187.092,249.886 185.959 C 248.869 183.042,246.712 180.800,244.920 180.800 C 244.634 180.800,244.400 180.620,244.400 180.400 C 244.400 180.180,244.040 180.000,243.600 180.000 C 243.160 180.000,242.800 179.820,242.800 179.600 C 242.800 179.380,242.170 179.200,241.400 179.200 C 240.630 179.200,240.000 179.380,240.000 179.600 " stroke="none" fill="#fc0404" fill-rule="evenodd"></path><path id="path2" d="M164.700 43.489 C 165.415 43.578,166.585 43.578,167.300 43.489 C 168.015 43.401,167.430 43.328,166.000 43.328 C 164.570 43.328,163.985 43.401,164.700 43.489 M194.505 43.487 C 195.114 43.579,196.014 43.577,196.505 43.482 C 196.997 43.387,196.500 43.311,195.400 43.314 C 194.300 43.317,193.897 43.395,194.505 43.487 M199.500 43.482 C 199.995 43.578,200.805 43.578,201.300 43.482 C 201.795 43.387,201.390 43.309,200.400 43.309 C 199.410 43.309,199.005 43.387,199.500 43.482 M203.300 43.476 C 203.685 43.576,204.315 43.576,204.700 43.476 C 205.085 43.375,204.770 43.293,204.000 43.293 C 203.230 43.293,202.915 43.375,203.300 43.476 M210.900 43.476 C 211.285 43.576,211.915 43.576,212.300 43.476 C 212.685 43.375,212.370 43.293,211.600 43.293 C 210.830 43.293,210.515 43.375,210.900 43.476 M217.300 43.476 C 217.685 43.576,218.315 43.576,218.700 43.476 C 219.085 43.375,218.770 43.293,218.000 43.293 C 217.230 43.293,216.915 43.375,217.300 43.476 M228.291 43.489 C 229.001 43.577,230.261 43.579,231.091 43.492 C 231.921 43.405,231.340 43.333,229.800 43.331 C 228.260 43.329,227.581 43.400,228.291 43.489 M240.000 43.572 C 241.948 43.961,243.116 44.631,245.189 46.547 C 246.172 47.456,246.622 47.757,246.189 47.215 C 244.321 44.882,241.530 43.171,239.716 43.246 C 238.710 43.287,238.738 43.320,240.000 43.572 M155.158 46.300 C 154.162 47.345,153.131 48.740,152.867 49.400 C 152.425 50.504,152.435 50.538,152.993 49.824 C 153.327 49.396,153.600 48.849,153.600 48.607 C 153.600 48.078,156.750 44.986,157.600 44.680 C 158.123 44.491,158.121 44.459,157.585 44.432 C 157.247 44.414,156.155 45.255,155.158 46.300 M247.911 62.220 C 247.973 68.919,248.063 74.441,248.111 74.490 C 248.160 74.540,261.610 74.675,278.000 74.790 C 309.760 75.014,308.619 74.940,310.443 76.900 C 310.801 77.285,311.236 77.600,311.409 77.600 C 311.951 77.600,310.330 76.028,309.035 75.297 C 307.901 74.657,305.379 74.584,278.200 74.400 L 248.600 74.200 248.494 62.414 C 248.435 55.931,248.255 50.495,248.094 50.333 C 247.932 50.172,247.850 55.520,247.911 62.220 M173.375 64.520 C 173.264 64.810,173.224 67.196,173.287 69.823 L 173.400 74.600 199.400 74.710 C 213.700 74.771,225.810 74.721,226.312 74.600 C 227.209 74.382,227.222 74.298,227.112 69.289 L 227.000 64.200 200.289 64.097 C 178.508 64.013,173.540 64.091,173.375 64.520 M226.712 69.300 L 226.600 74.200 200.100 74.303 L 173.600 74.406 173.600 69.403 L 173.600 64.400 200.212 64.400 L 226.825 64.400 226.712 69.300 M122.533 74.394 C 106.216 74.507,92.776 74.690,92.666 74.800 C 92.556 74.910,105.812 74.950,122.123 74.890 C 140.699 74.821,151.926 74.634,152.170 74.390 C 152.385 74.175,152.479 74.042,152.380 74.094 C 152.281 74.145,138.850 74.280,122.533 74.394 M90.047 76.412 C 88.473 77.552,86.803 79.708,86.803 80.600 C 86.803 80.820,87.137 80.453,87.544 79.784 C 87.952 79.116,89.147 77.811,90.199 76.884 C 92.450 74.903,92.389 74.715,90.047 76.412 M313.190 80.182 C 314.451 82.427,314.449 118.708,313.188 121.319 L 312.377 123.000 313.288 122.089 L 314.200 121.178 314.315 101.524 C 314.433 81.161,314.351 79.959,312.779 78.987 C 312.560 78.852,312.745 79.389,313.190 80.182 M86.267 81.467 C 85.897 81.837,85.929 119.909,86.300 120.138 C 86.465 120.240,86.600 111.521,86.600 100.762 C 86.600 90.003,86.585 81.200,86.567 81.200 C 86.548 81.200,86.413 81.320,86.267 81.467 M86.800 121.358 C 86.800 121.980,88.437 123.962,89.923 125.139 C 91.319 126.245,95.890 127.592,95.365 126.743 C 95.248 126.554,94.740 126.400,94.236 126.400 C 92.997 126.400,90.800 125.608,90.800 125.161 C 90.800 124.962,90.539 124.800,90.220 124.800 C 89.902 124.800,89.146 124.125,88.542 123.300 C 87.060 121.275,86.800 120.986,86.800 121.358 M310.603 124.596 C 309.637 125.423,308.374 126.067,307.403 126.226 C 306.521 126.371,305.530 126.658,305.200 126.864 C 304.732 127.156,304.775 127.197,305.400 127.049 C 305.840 126.945,306.811 126.736,307.557 126.586 C 309.005 126.293,311.824 124.529,312.167 123.700 C 312.448 123.024,312.426 123.037,310.603 124.596 M147.868 127.500 C 176.505 127.557,223.485 127.557,252.268 127.500 C 281.051 127.443,257.620 127.397,200.200 127.397 C 142.780 127.397,119.231 127.443,147.868 127.500 M100.267 147.066 C 99.830 147.503,99.955 159.125,100.400 159.400 C 100.641 159.549,100.800 162.330,100.800 166.400 C 100.800 170.114,100.935 173.237,101.100 173.339 C 101.543 173.614,101.228 159.868,100.781 159.421 C 100.571 159.211,100.400 156.376,100.400 153.120 L 100.400 147.200 200.189 147.200 L 299.978 147.200 300.105 152.700 L 300.233 158.200 300.216 152.600 L 300.200 147.000 200.367 146.899 C 145.460 146.844,100.415 146.919,100.267 147.066 M299.470 159.500 C 299.372 159.665,299.169 165.920,299.018 173.400 C 298.868 180.880,298.645 187.360,298.523 187.800 C 298.398 188.250,298.454 188.455,298.650 188.268 C 298.931 188.002,299.994 159.197,299.724 159.199 C 299.682 159.200,299.567 159.335,299.470 159.500 M160.800 179.002 C 160.800 179.071,161.722 179.588,162.848 180.149 C 164.430 180.937,164.749 181.006,164.247 180.452 C 163.695 179.842,160.800 178.624,160.800 179.002 M202.000 179.261 C 204.986 180.574,205.901 181.080,206.900 181.970 C 207.505 182.509,208.000 182.802,208.000 182.622 C 208.000 181.722,204.408 179.520,202.200 179.067 C 201.047 178.831,201.039 178.839,202.000 179.261 M242.800 178.990 C 242.800 179.081,243.862 179.632,245.161 180.214 C 247.956 181.469,249.229 182.749,250.134 185.213 C 251.171 188.038,251.157 316.780,250.119 319.086 C 249.344 320.809,246.885 323.600,246.142 323.600 C 245.870 323.600,245.536 323.780,245.400 324.000 C 244.797 324.976,246.175 324.255,247.832 322.728 C 251.540 319.310,251.200 326.416,251.200 252.335 C 251.200 192.439,251.145 186.876,250.535 185.213 C 249.452 182.261,247.352 180.427,243.500 179.072 C 243.115 178.936,242.800 178.899,242.800 178.990 M154.200 180.198 C 153.540 180.491,152.460 181.331,151.801 182.065 L 150.602 183.400 152.020 182.100 C 152.800 181.385,153.620 180.800,153.843 180.800 C 154.065 180.800,154.596 180.536,155.024 180.213 C 155.964 179.501,155.778 179.498,154.200 180.198 M195.400 180.066 C 193.827 180.934,192.306 182.632,191.361 184.575 L 190.400 186.550 190.400 252.251 C 190.400 288.387,190.535 318.036,190.700 318.138 C 190.865 318.240,190.954 288.705,190.898 252.505 L 190.795 186.687 191.801 184.561 C 192.735 182.587,194.897 180.400,195.914 180.400 C 196.155 180.400,196.464 180.220,196.600 180.000 C 196.921 179.481,196.408 179.509,195.400 180.066 M233.630 182.700 C 232.833 184.108,232.831 184.139,233.591 183.200 C 234.036 182.650,234.587 181.975,234.816 181.700 C 235.052 181.416,235.069 181.200,234.855 181.200 C 234.648 181.200,234.097 181.875,233.630 182.700 M166.400 182.697 C 166.400 182.920,166.658 183.317,166.974 183.579 C 167.290 183.841,167.664 184.581,167.805 185.223 C 167.946 185.865,168.220 186.489,168.415 186.609 C 168.962 186.947,167.961 184.316,167.136 183.246 C 166.731 182.721,166.400 182.474,166.400 182.697 M209.420 186.187 C 210.221 188.102,210.300 314.868,209.502 317.849 C 207.310 326.044,195.797 327.304,191.665 319.800 C 191.423 319.360,191.219 319.229,191.212 319.509 C 191.205 319.789,191.957 320.839,192.882 321.843 C 198.360 327.786,207.181 325.802,209.894 318.018 C 210.716 315.658,210.615 187.576,209.790 185.980 C 208.952 184.359,208.713 184.493,209.420 186.187 M149.443 186.233 C 149.088 187.157,149.145 318.319,149.500 318.538 C 149.665 318.640,149.800 288.771,149.800 252.162 C 149.800 215.553,149.774 185.600,149.743 185.600 C 149.711 185.600,149.576 185.885,149.443 186.233 M231.680 186.480 C 231.134 187.026,230.956 317.402,231.500 317.738 C 231.665 317.840,231.753 288.592,231.696 252.742 C 231.625 208.026,231.724 187.316,232.011 186.780 C 232.488 185.889,232.374 185.786,231.680 186.480 M168.995 252.000 C 168.995 287.750,169.042 302.375,169.100 284.500 C 169.158 266.625,169.158 237.375,169.100 219.500 C 169.042 201.625,168.995 216.250,168.995 252.000 M101.920 191.736 C 102.033 195.562,102.483 207.761,103.120 224.268 C 103.274 228.265,103.490 231.626,103.600 231.736 C 103.958 232.093,103.588 217.829,103.212 216.800 C 103.012 216.250,102.726 209.657,102.577 202.148 C 102.428 194.639,102.192 188.311,102.053 188.084 C 101.914 187.858,101.854 189.502,101.920 191.736 M298.089 195.067 C 298.040 198.624,297.896 201.864,297.770 202.267 C 297.559 202.937,297.578 202.941,297.980 202.318 C 298.268 201.871,298.378 199.380,298.299 195.118 L 298.179 188.600 298.089 195.067 M297.065 217.070 C 296.951 217.471,296.741 223.830,296.600 231.200 C 296.459 238.570,296.243 244.960,296.122 245.400 C 295.997 245.850,296.054 246.055,296.250 245.868 C 296.531 245.601,297.599 216.930,297.345 216.470 C 297.305 216.398,297.179 216.668,297.065 217.070 M104.130 245.850 C 104.249 246.262,104.471 252.769,104.624 260.308 C 104.777 267.847,105.059 274.113,105.251 274.231 C 105.443 274.350,105.600 277.666,105.600 281.600 C 105.600 285.534,105.735 288.837,105.900 288.939 C 106.337 289.211,105.661 262.025,105.195 260.572 C 104.978 259.896,104.800 256.262,104.800 252.495 C 104.800 247.920,104.653 245.556,104.357 245.374 C 104.071 245.197,103.991 245.365,104.130 245.850 M294.578 274.514 C 294.469 274.797,294.430 278.172,294.491 282.014 L 294.602 289.000 294.801 281.500 C 294.996 274.140,294.975 273.478,294.578 274.514 M293.888 289.473 C 293.782 289.653,293.572 295.920,293.421 303.400 C 293.271 310.880,293.047 317.360,292.924 317.800 C 292.799 318.250,292.854 318.455,293.050 318.268 C 293.327 318.007,294.392 289.761,294.144 289.273 C 294.109 289.204,293.993 289.294,293.888 289.473 M106.799 310.719 L 106.998 317.800 107.109 311.030 C 107.170 307.306,107.080 304.120,106.910 303.949 C 106.739 303.778,106.690 306.824,106.799 310.719 M168.180 318.243 C 168.049 318.659,167.761 319.334,167.541 319.742 C 167.252 320.277,167.267 320.406,167.595 320.203 C 168.136 319.868,168.908 317.975,168.621 317.687 C 168.510 317.576,168.311 317.826,168.180 318.243 M107.720 331.899 C 107.897 339.545,108.213 346.160,108.423 346.600 L 108.804 347.400 108.626 346.600 C 108.529 346.160,108.323 339.545,108.170 331.900 C 108.017 324.255,107.781 318.000,107.646 317.999 C 107.511 317.999,107.544 324.254,107.720 331.899 M232.006 318.682 C 231.989 320.027,235.944 324.397,237.180 324.399 C 237.499 324.400,237.028 323.926,236.134 323.346 C 234.652 322.385,233.923 321.524,232.506 319.059 C 232.234 318.587,232.009 318.417,232.006 318.682 M152.539 322.616 C 153.605 323.597,154.667 324.400,154.899 324.400 C 155.130 324.400,154.565 323.853,153.641 323.184 C 152.718 322.515,151.862 321.705,151.738 321.384 C 151.615 321.063,151.309 320.807,151.057 320.816 C 150.806 320.825,151.472 321.635,152.539 322.616 M165.991 321.908 C 165.437 322.508,164.537 323.311,163.991 323.692 C 163.218 324.231,163.176 324.328,163.800 324.132 C 164.753 323.833,166.324 322.478,166.851 321.500 C 167.370 320.536,167.170 320.631,165.991 321.908 M155.862 324.900 C 155.964 325.065,157.286 325.200,158.800 325.200 C 160.314 325.200,161.636 325.065,161.738 324.900 C 161.840 324.735,160.518 324.600,158.800 324.600 C 157.082 324.600,155.760 324.735,155.862 324.900 M238.537 324.894 C 239.147 325.281,244.300 325.286,244.537 324.900 C 244.638 324.735,243.226 324.600,241.398 324.600 C 239.570 324.600,238.282 324.732,238.537 324.894 M292.177 332.915 C 292.068 333.199,292.030 336.394,292.091 340.015 L 292.203 346.600 292.401 339.500 C 292.596 332.528,292.574 331.880,292.177 332.915 M291.467 347.067 C 291.320 347.213,291.200 347.941,291.200 348.683 C 291.200 351.361,288.955 354.487,285.916 356.041 C 283.544 357.254,116.775 357.227,114.484 356.014 C 112.369 354.893,111.330 353.974,110.622 352.600 C 110.222 351.823,110.004 351.647,110.002 352.100 C 109.999 353.031,112.997 355.905,114.724 356.626 C 116.976 357.567,283.896 357.481,285.720 356.538 C 289.215 354.730,291.406 351.827,291.657 348.668 C 291.739 347.641,291.789 346.800,291.770 346.800 C 291.750 346.800,291.613 346.920,291.467 347.067 " stroke="none" fill="#fc7c7c" fill-rule="evenodd"></path><path id="path3" d="M159.062 43.100 C 158.960 43.265,177.472 43.400,200.200 43.400 C 222.928 43.400,241.440 43.265,241.338 43.100 C 241.096 42.708,159.304 42.708,159.062 43.100 M154.800 46.200 C 153.828 47.190,153.123 48.000,153.233 48.000 C 153.343 48.000,154.228 47.190,155.200 46.200 C 156.172 45.210,156.877 44.400,156.767 44.400 C 156.657 44.400,155.772 45.210,154.800 46.200 M152.094 62.097 L 152.000 73.995 122.900 74.100 L 93.800 74.205 122.913 74.303 C 146.055 74.380,152.065 74.296,152.219 73.895 C 152.325 73.617,152.362 68.172,152.300 61.795 L 152.187 50.200 152.094 62.097 M182.800 64.692 C 207.145 64.968,226.800 64.972,226.800 64.700 C 226.800 64.535,214.785 64.442,200.100 64.492 C 185.415 64.543,177.630 64.633,182.800 64.692 M186.700 74.300 C 194.015 74.361,205.985 74.361,213.300 74.300 C 220.615 74.239,214.630 74.189,200.000 74.189 C 185.370 74.189,179.385 74.239,186.700 74.300 M259.000 74.292 C 286.045 74.569,307.107 74.572,306.938 74.300 C 306.836 74.135,293.668 74.042,277.676 74.093 C 261.684 74.144,253.280 74.234,259.000 74.292 M309.620 125.776 C 309.357 126.093,308.750 126.428,308.271 126.522 C 307.425 126.686,307.424 126.693,308.238 126.746 C 308.699 126.775,309.402 126.440,309.800 126.000 C 310.198 125.560,310.428 125.200,310.311 125.200 C 310.194 125.200,309.883 125.459,309.620 125.776 M93.233 126.943 C 93.325 127.021,94.030 127.201,94.800 127.342 C 95.785 127.523,96.022 127.482,95.600 127.206 C 95.058 126.850,92.837 126.603,93.233 126.943 M299.856 159.284 C 299.721 159.788,299.644 163.170,299.684 166.800 L 299.757 173.400 299.979 166.000 C 300.100 161.930,300.178 158.548,300.151 158.484 C 300.124 158.420,299.991 158.780,299.856 159.284 M101.199 180.719 L 101.398 188.200 101.509 181.030 C 101.569 177.086,101.480 173.719,101.310 173.549 C 101.139 173.378,101.090 176.605,101.199 180.719 M159.200 179.093 C 159.970 179.183,160.771 179.424,160.980 179.629 C 161.189 179.833,161.639 179.999,161.980 179.998 C 162.321 179.996,162.084 179.726,161.454 179.398 C 160.824 179.069,159.744 178.829,159.054 178.864 C 157.805 178.928,157.805 178.929,159.200 179.093 M199.300 179.076 C 199.685 179.176,200.315 179.176,200.700 179.076 C 201.085 178.975,200.770 178.893,200.000 178.893 C 199.230 178.893,198.915 178.975,199.300 179.076 M241.200 179.093 C 241.970 179.183,242.771 179.424,242.980 179.629 C 243.189 179.833,243.639 179.999,243.980 179.998 C 244.321 179.996,244.084 179.726,243.454 179.398 C 242.824 179.069,241.744 178.829,241.054 178.864 C 239.805 178.928,239.805 178.929,241.200 179.093 M236.800 180.444 C 236.250 180.898,236.026 181.153,236.301 181.010 C 238.606 179.819,238.926 179.606,238.400 179.611 C 238.070 179.615,237.350 179.989,236.800 180.444 M152.006 182.194 C 151.263 182.961,150.732 183.637,150.827 183.698 C 150.922 183.758,151.656 183.131,152.459 182.304 C 153.261 181.477,153.791 180.800,153.637 180.800 C 153.483 180.800,152.749 181.427,152.006 182.194 M248.229 182.438 C 248.873 183.229,249.481 183.808,249.579 183.725 C 249.678 183.642,249.151 182.995,248.409 182.287 L 247.058 181.000 248.229 182.438 M233.500 183.414 C 232.501 184.750,232.631 185.123,233.646 183.833 C 234.111 183.242,234.426 182.695,234.346 182.618 C 234.266 182.541,233.885 182.900,233.500 183.414 M149.795 252.200 C 149.795 288.500,149.842 303.291,149.900 285.068 C 149.958 266.846,149.958 237.146,149.900 219.068 C 149.842 200.991,149.795 215.900,149.795 252.200 M209.795 252.000 C 209.795 287.750,209.842 302.375,209.900 284.500 C 209.958 266.625,209.958 237.375,209.900 219.500 C 209.842 201.625,209.795 216.250,209.795 252.000 M231.795 252.200 C 231.795 288.060,231.842 302.671,231.900 284.668 C 231.958 266.666,231.958 237.326,231.900 219.468 C 231.842 201.611,231.795 216.340,231.795 252.200 M298.577 188.517 C 298.468 188.801,298.429 191.816,298.491 195.217 L 298.603 201.400 298.801 194.699 C 298.997 188.115,298.974 187.482,298.577 188.517 M101.678 195.000 C 101.642 198.740,101.744 202.009,101.906 202.264 C 102.068 202.519,102.152 200.269,102.092 197.264 C 101.921 188.574,101.750 187.636,101.678 195.000 M297.765 209.800 C 297.766 213.760,297.826 215.326,297.898 213.280 C 297.971 211.234,297.971 207.994,297.898 206.080 C 297.824 204.166,297.765 205.840,297.765 209.800 M297.365 224.200 C 297.366 228.160,297.426 229.726,297.498 227.680 C 297.571 225.634,297.571 222.394,297.498 220.480 C 297.424 218.566,297.365 220.240,297.365 224.200 M103.764 238.600 C 103.763 242.340,103.823 243.924,103.897 242.120 C 103.971 240.315,103.972 237.255,103.898 235.320 C 103.825 233.384,103.764 234.860,103.764 238.600 M296.165 253.000 C 296.166 256.960,296.226 258.526,296.298 256.480 C 296.371 254.434,296.371 251.194,296.298 249.280 C 296.224 247.366,296.165 249.040,296.165 253.000 M295.289 267.467 C 295.240 271.024,295.096 274.264,294.970 274.667 C 294.759 275.337,294.778 275.341,295.180 274.718 C 295.468 274.271,295.578 271.780,295.499 267.518 L 295.379 261.000 295.289 267.467 M105.104 281.138 C 105.162 285.022,105.387 288.560,105.605 289.000 C 105.823 289.440,106.050 292.950,106.111 296.800 L 106.220 303.800 106.310 296.524 C 106.366 292.005,106.248 289.154,106.000 289.000 C 105.757 288.850,105.600 285.937,105.600 281.600 C 105.600 277.666,105.465 274.363,105.300 274.261 C 105.135 274.159,105.047 277.253,105.104 281.138 M293.806 303.606 C 293.643 311.106,293.598 317.331,293.706 317.440 C 293.815 317.548,294.037 311.500,294.200 304.000 C 294.363 296.500,294.408 290.274,294.299 290.166 C 294.191 290.057,293.969 296.105,293.806 303.606 M107.365 325.400 C 107.366 329.360,107.426 330.926,107.498 328.880 C 107.571 326.834,107.571 323.594,107.498 321.680 C 107.424 319.766,107.365 321.440,107.365 325.400 M292.966 325.600 C 292.966 329.670,293.025 331.335,293.098 329.300 C 293.171 327.265,293.171 323.935,293.098 321.900 C 293.025 319.865,292.966 321.530,292.966 325.600 M191.914 320.204 C 192.141 320.647,192.748 321.366,193.263 321.802 C 194.167 322.566,194.165 322.552,193.206 321.397 C 191.613 319.479,191.479 319.355,191.914 320.204 M247.747 321.899 C 246.838 322.835,246.216 323.600,246.366 323.600 C 246.726 323.600,249.798 320.446,249.574 320.306 C 249.478 320.247,248.656 320.964,247.747 321.899 M107.764 339.400 C 107.763 343.140,107.823 344.724,107.897 342.920 C 107.971 341.115,107.972 338.055,107.898 336.120 C 107.825 334.184,107.764 335.660,107.764 339.400 M108.432 348.676 C 108.414 349.598,108.542 350.441,108.716 350.548 C 108.890 350.656,108.967 350.082,108.887 349.272 C 108.669 347.058,108.467 346.795,108.432 348.676 M291.701 348.600 C 291.705 349.480,291.787 349.793,291.883 349.295 C 291.979 348.798,291.975 348.078,291.875 347.695 C 291.775 347.313,291.696 347.720,291.701 348.600 " stroke="none" fill="#fc6464" fill-rule="evenodd"></path><path id="path4" d="M245.701 46.343 C 246.745 47.522,247.600 48.677,247.600 48.910 C 247.600 49.143,247.710 49.224,247.844 49.090 C 248.072 48.861,246.727 46.683,245.812 45.800 C 244.199 44.244,244.132 44.572,245.701 46.343 M152.400 48.800 C 152.121 49.474,151.986 50.119,152.100 50.233 C 152.214 50.347,152.509 49.862,152.756 49.156 C 153.338 47.486,153.059 47.208,152.400 48.800 M248.400 61.920 L 248.599 74.200 248.706 62.226 C 248.764 55.640,248.674 50.114,248.506 49.946 C 248.338 49.777,248.290 55.165,248.400 61.920 M199.887 65.099 L 226.374 65.206 226.508 69.703 L 226.643 74.200 226.622 69.600 L 226.600 65.000 200.000 64.996 L 173.400 64.991 199.887 65.099 M89.260 76.242 C 88.962 76.578,88.799 76.932,88.895 77.029 C 88.992 77.126,89.398 76.844,89.798 76.402 C 90.197 75.961,90.361 75.607,90.162 75.615 C 89.963 75.624,89.557 75.905,89.260 76.242 M87.302 78.330 C 86.812 78.919,86.420 79.760,86.431 80.200 C 86.448 80.881,86.509 80.853,86.846 80.008 C 87.064 79.463,87.532 78.697,87.885 78.306 C 88.239 77.915,88.453 77.520,88.361 77.428 C 88.269 77.336,87.793 77.742,87.302 78.330 M314.038 80.738 C 314.287 81.451,314.391 89.357,314.318 101.857 C 314.222 118.099,314.292 121.572,314.694 120.419 C 315.324 118.608,315.424 81.786,314.800 81.400 C 314.580 81.264,314.400 80.803,314.400 80.376 C 314.400 79.949,314.229 79.600,314.021 79.600 C 313.786 79.600,313.793 80.034,314.038 80.738 M85.690 100.676 C 85.641 111.498,85.735 120.436,85.900 120.538 C 86.173 120.707,86.168 105.942,85.889 88.000 C 85.829 84.150,85.740 89.854,85.690 100.676 M87.081 123.000 C 87.448 123.770,87.889 124.400,88.061 124.400 C 88.232 124.400,88.001 123.770,87.547 123.000 C 87.093 122.230,86.652 121.600,86.567 121.600 C 86.482 121.600,86.713 122.230,87.081 123.000 M311.881 124.237 C 311.083 125.307,311.323 125.535,312.261 124.596 C 312.593 124.264,312.805 123.831,312.732 123.633 C 312.659 123.436,312.277 123.707,311.881 124.237 M90.200 126.000 C 90.598 126.440,91.076 126.800,91.262 126.800 C 91.448 126.800,91.240 126.440,90.800 126.000 C 90.360 125.560,89.882 125.200,89.738 125.200 C 89.594 125.200,89.802 125.560,90.200 126.000 M93.141 127.301 C 93.343 127.503,93.933 127.601,94.454 127.519 C 95.255 127.393,95.198 127.337,94.087 127.152 C 93.293 127.021,92.919 127.079,93.141 127.301 M306.200 127.200 L 305.000 127.505 306.276 127.553 C 306.978 127.579,307.664 127.420,307.800 127.200 C 308.074 126.757,307.940 126.757,306.200 127.200 M100.300 146.432 C 99.540 146.875,99.201 158.906,99.936 159.360 C 100.121 159.474,100.509 169.122,100.800 180.800 C 101.091 192.478,101.434 202.098,101.564 202.179 C 101.912 202.395,100.652 159.716,100.300 159.365 C 100.135 159.201,100.000 156.307,100.000 152.933 L 100.000 146.800 200.246 146.800 L 300.492 146.800 300.201 159.900 C 300.041 167.105,299.746 173.203,299.546 173.452 C 299.345 173.701,299.235 177.211,299.300 181.252 L 299.419 188.600 299.510 181.124 C 299.559 177.012,299.757 173.550,299.948 173.432 C 300.742 172.941,300.953 147.101,300.168 146.527 C 299.244 145.851,101.458 145.757,100.300 146.432 M162.400 180.294 C 162.400 180.468,163.100 180.914,163.955 181.285 C 165.263 181.852,165.740 182.424,166.954 184.880 L 168.398 187.802 168.500 252.401 L 168.602 317.000 168.671 252.200 L 168.740 187.400 167.270 184.628 C 165.950 182.140,162.400 178.980,162.400 180.294 M195.323 180.816 C 193.653 181.599,192.770 182.400,193.576 182.400 C 193.809 182.400,194.000 182.262,194.000 182.094 C 194.000 181.926,194.720 181.477,195.600 181.096 C 196.480 180.714,197.200 180.312,197.200 180.201 C 197.200 179.931,197.231 179.921,195.323 180.816 M204.400 180.791 C 204.950 181.217,205.916 181.964,206.546 182.452 L 207.693 183.338 207.146 182.438 C 206.846 181.944,205.880 181.196,205.000 180.778 C 203.414 180.023,203.409 180.023,204.400 180.791 M244.400 180.413 C 244.400 180.626,244.749 180.800,245.176 180.800 C 245.603 180.800,246.064 180.980,246.200 181.200 C 246.336 181.420,246.657 181.600,246.913 181.600 C 247.169 181.600,247.023 181.360,246.589 181.066 C 245.422 180.277,244.400 179.972,244.400 180.413 M153.800 181.144 C 153.140 181.552,152.243 182.316,151.806 182.843 C 151.089 183.708,151.128 183.699,152.206 182.748 C 152.863 182.169,153.940 181.411,154.600 181.064 C 155.260 180.716,155.620 180.425,155.400 180.418 C 155.180 180.410,154.460 180.737,153.800 181.144 M235.500 181.429 C 234.895 181.757,234.400 182.231,234.400 182.481 C 234.400 182.732,234.092 183.311,233.715 183.769 C 233.338 184.226,233.471 184.150,234.011 183.600 C 234.551 183.050,235.445 182.196,235.997 181.702 C 237.159 180.662,237.037 180.595,235.500 181.429 M248.491 183.200 C 250.470 186.119,250.394 183.498,250.499 252.628 L 250.598 317.800 250.706 252.800 C 250.824 182.575,250.911 185.577,248.675 183.070 L 247.542 181.800 248.491 183.200 M232.524 185.300 C 232.346 185.575,232.198 215.500,232.195 251.800 L 232.189 317.800 232.395 252.000 C 232.508 215.810,232.754 185.885,232.943 185.500 C 233.335 184.700,233.012 184.546,232.524 185.300 M150.099 252.251 C 150.005 315.511,150.038 319.132,150.700 319.651 C 151.320 320.137,151.343 320.127,150.901 319.560 C 150.508 319.057,150.381 304.750,150.300 252.160 L 150.198 185.400 150.099 252.251 M209.395 252.000 C 209.395 287.970,209.442 302.685,209.500 284.700 C 209.558 266.715,209.558 237.285,209.500 219.300 C 209.442 201.315,209.395 216.030,209.395 252.000 M102.082 209.876 C 102.031 214.387,102.152 217.247,102.400 217.400 C 102.643 217.550,102.800 220.463,102.800 224.800 C 102.800 228.734,102.935 232.037,103.100 232.139 C 103.414 232.334,103.343 225.139,102.979 220.000 C 102.862 218.350,102.631 213.760,102.466 209.800 L 102.165 202.600 102.082 209.876 M297.690 223.667 C 297.641 227.554,297.484 231.064,297.341 231.467 C 297.149 232.012,297.202 232.090,297.550 231.771 C 297.884 231.465,297.984 229.224,297.900 223.971 L 297.781 216.600 297.690 223.667 M296.890 238.667 C 296.840 242.224,296.684 245.464,296.541 245.867 C 296.348 246.413,296.402 246.490,296.751 246.170 C 297.084 245.865,297.185 243.772,297.100 238.970 L 296.979 232.200 296.890 238.667 M103.600 252.510 C 103.600 257.040,103.757 260.050,104.000 260.200 C 104.242 260.349,104.400 263.196,104.400 267.400 C 104.400 271.224,104.535 274.437,104.700 274.539 C 105.090 274.781,104.294 245.759,103.900 245.366 C 103.735 245.201,103.600 248.416,103.600 252.510 M295.125 275.000 C 294.974 275.440,294.778 282.100,294.690 289.800 C 294.602 297.500,294.591 300.650,294.664 296.800 C 294.738 292.950,294.984 289.440,295.211 289.000 C 295.462 288.514,295.580 285.453,295.512 281.200 C 295.450 277.350,295.276 274.560,295.125 275.000 M167.867 317.467 C 167.720 317.613,167.600 317.964,167.600 318.247 C 167.600 318.936,165.241 322.400,164.772 322.400 C 164.567 322.400,164.400 322.602,164.400 322.849 C 164.400 324.002,167.640 319.821,168.095 318.080 C 168.339 317.148,168.297 317.036,167.867 317.467 M106.872 325.276 C 106.832 329.388,106.935 332.837,107.100 332.939 C 107.265 333.041,107.352 330.487,107.293 327.263 C 107.124 317.980,106.950 317.160,106.872 325.276 M232.432 318.364 C 232.391 319.088,235.590 323.343,235.924 323.009 C 236.063 322.870,235.997 322.631,235.778 322.478 C 235.206 322.079,232.958 319.110,232.690 318.400 C 232.509 317.921,232.457 317.914,232.432 318.364 M249.362 319.300 C 249.000 320.015,248.500 320.880,248.252 321.222 C 248.003 321.564,248.279 321.320,248.864 320.680 C 249.450 320.039,250.018 319.175,250.127 318.758 C 250.426 317.614,250.099 317.846,249.362 319.300 M206.600 321.600 C 205.741 322.480,204.804 323.200,204.519 323.200 C 204.233 323.200,204.000 323.386,204.000 323.614 C 204.000 324.072,205.498 323.391,206.192 322.619 C 206.416 322.369,207.036 321.677,207.570 321.082 C 209.054 319.426,208.362 319.796,206.600 321.600 M152.378 321.775 C 153.137 322.559,153.825 323.200,153.909 323.200 C 154.255 323.200,152.152 320.835,151.600 320.603 C 151.270 320.464,151.620 320.992,152.378 321.775 M292.070 348.067 C 292.031 348.874,291.884 349.864,291.741 350.267 C 291.544 350.826,291.597 350.894,291.967 350.554 C 292.257 350.287,292.389 349.407,292.296 348.354 C 292.148 346.698,292.136 346.682,292.070 348.067 M109.200 351.956 C 109.200 352.151,109.558 352.736,109.996 353.256 L 110.792 354.200 110.166 352.900 C 109.546 351.610,109.200 351.272,109.200 351.956 M289.798 353.602 C 289.398 354.044,289.166 354.499,289.282 354.615 C 289.397 354.730,289.790 354.369,290.155 353.812 C 290.952 352.596,290.793 352.502,289.798 353.602 " stroke="none" fill="#fc2424" fill-rule="evenodd"></path></g></svg>