<svg id="svg" version="1.1" xmlns="http://www.w3.org/2000/svg" xmlns:xlink="http://www.w3.org/1999/xlink" width="400" height="400" viewBox="0, 0, 400,400"><g id="svgg"><path id="path0" d="M286.000 54.400 C 286.000 54.620,285.460 54.800,284.800 54.800 C 284.140 54.800,283.600 54.980,283.600 55.200 C 283.600 55.420,283.240 55.600,282.800 55.600 C 282.360 55.600,282.000 55.780,282.000 56.000 C 282.000 56.220,281.693 56.400,281.319 56.400 C 280.241 56.400,258.103 78.702,257.933 79.958 C 257.756 81.275,318.392 142.175,319.937 142.233 C 321.004 142.272,343.268 120.243,342.964 119.450 C 342.858 119.175,343.219 118.711,343.765 118.419 C 344.575 117.985,344.715 117.677,344.529 116.744 C 344.386 116.028,344.468 115.600,344.750 115.600 C 344.998 115.600,345.200 115.161,345.200 114.624 C 345.200 114.087,345.380 113.536,345.600 113.400 C 346.099 113.092,346.133 105.446,345.640 104.495 C 345.443 104.113,344.858 102.945,344.341 101.900 C 343.824 100.855,343.247 100.000,343.058 100.000 C 342.869 100.000,342.811 99.748,342.929 99.440 C 343.064 99.090,341.092 96.845,337.672 93.455 C 334.662 90.471,325.360 81.177,317.000 72.802 C 303.006 58.781,300.389 56.400,298.972 56.400 C 298.694 56.400,298.407 56.265,298.333 56.100 C 297.604 54.459,286.000 52.859,286.000 54.400 M160.300 176.932 C 119.875 217.419,86.800 250.684,86.800 250.854 C 86.800 251.523,148.919 313.235,149.477 313.121 C 149.905 313.033,278.693 184.611,295.117 167.895 L 297.234 165.740 284.840 153.370 C 278.024 146.567,272.162 140.730,271.815 140.400 C 271.468 140.070,267.233 135.840,262.404 131.000 C 257.576 126.160,253.305 121.884,252.913 121.499 C 252.248 120.845,249.247 117.868,248.087 116.712 C 247.804 116.430,244.739 113.275,241.274 109.700 C 237.810 106.125,234.711 103.227,234.388 103.260 C 234.064 103.293,200.725 136.445,160.300 176.932 M63.391 275.945 C 63.583 277.082,63.486 277.657,63.026 278.117 C 62.663 278.480,62.400 279.427,62.400 280.371 C 62.400 281.322,62.211 282.000,61.945 282.000 C 61.621 282.000,61.568 282.866,61.762 285.006 C 61.989 287.512,61.932 288.051,61.419 288.248 C 60.942 288.431,60.862 288.848,61.063 290.103 C 61.269 291.394,61.177 291.828,60.606 292.245 C 60.048 292.653,59.938 293.125,60.107 294.384 C 60.278 295.659,60.195 296.000,59.715 296.000 C 59.200 296.000,59.149 296.455,59.383 298.958 C 59.567 300.923,59.516 302.005,59.230 302.181 C 58.994 302.328,58.800 303.236,58.800 304.200 C 58.800 305.164,58.620 306.064,58.400 306.200 C 58.180 306.336,58.000 307.252,58.000 308.236 C 58.000 309.456,57.809 310.098,57.401 310.255 C 56.915 310.441,56.850 310.994,57.053 313.186 C 57.223 315.014,57.158 315.979,56.852 316.168 C 56.604 316.321,56.400 317.211,56.400 318.144 C 56.400 319.077,56.177 320.063,55.904 320.336 C 55.581 320.659,55.453 321.724,55.538 323.372 C 55.617 324.905,55.496 326.017,55.234 326.179 C 54.995 326.326,54.800 327.157,54.800 328.024 C 54.800 328.891,54.620 329.600,54.400 329.600 C 53.508 329.600,53.922 338.911,54.900 340.842 C 56.122 343.256,57.307 344.698,57.904 344.499 C 58.177 344.408,58.505 344.607,58.633 344.941 C 58.761 345.276,59.120 345.452,59.430 345.333 C 59.740 345.214,60.087 345.361,60.201 345.658 C 60.476 346.376,69.965 346.304,70.412 345.581 C 70.619 345.246,71.516 345.191,73.495 345.390 C 75.811 345.622,76.328 345.565,76.523 345.057 C 76.695 344.608,77.118 344.502,78.098 344.661 C 79.041 344.814,79.594 344.689,79.968 344.239 C 80.304 343.834,81.131 343.600,82.225 343.600 C 83.175 343.600,84.074 343.404,84.222 343.164 C 84.402 342.873,85.407 342.820,87.246 343.005 C 89.152 343.196,90.000 343.146,90.000 342.841 C 90.000 342.587,90.744 342.400,91.757 342.400 C 92.902 342.400,93.590 342.203,93.731 341.835 C 93.891 341.419,94.392 341.329,95.625 341.494 C 96.956 341.673,97.382 341.576,97.691 341.023 C 98.029 340.420,98.455 340.364,100.889 340.609 C 103.034 340.824,103.774 340.765,104.025 340.359 C 104.232 340.025,104.944 339.869,105.936 339.941 C 106.807 340.004,107.638 339.863,107.783 339.628 C 107.928 339.392,108.847 339.200,109.824 339.200 C 110.801 339.200,111.600 339.020,111.600 338.800 C 111.600 338.567,112.933 338.400,114.800 338.400 C 116.667 338.400,118.000 338.233,118.000 338.000 C 118.000 337.780,118.619 337.600,119.376 337.600 C 120.133 337.600,120.864 337.420,121.000 337.200 C 121.136 336.980,122.227 336.800,123.424 336.800 C 125.229 336.800,125.600 336.681,125.600 336.101 C 125.600 335.147,64.820 274.400,63.866 274.400 C 63.233 274.400,63.166 274.617,63.391 275.945 " stroke="none" fill="#848484" fill-rule="evenodd"></path><path id="path1" d="M285.000 53.829 C 282.845 54.600,281.595 55.229,280.400 56.145 L 279.400 56.911 280.600 56.626 C 281.260 56.469,281.860 56.174,281.933 55.970 C 282.007 55.767,282.412 55.600,282.833 55.600 C 283.255 55.600,283.600 55.420,283.600 55.200 C 283.600 54.980,284.140 54.800,284.800 54.800 C 285.460 54.800,286.000 54.620,286.000 54.400 C 286.000 54.157,287.741 54.000,290.424 54.000 C 293.271 54.000,294.759 53.857,294.600 53.600 C 294.222 52.989,286.856 53.165,285.000 53.829 M295.200 53.974 C 295.200 54.210,295.920 54.714,296.800 55.096 C 297.680 55.477,298.400 55.926,298.400 56.094 C 298.400 56.262,298.642 56.400,298.939 56.400 C 300.392 56.400,302.922 58.697,317.000 72.802 C 325.360 81.177,334.662 90.471,337.672 93.455 C 341.092 96.845,343.064 99.090,342.929 99.440 C 342.811 99.748,342.869 100.000,343.058 100.000 C 343.247 100.000,343.824 100.855,344.341 101.900 C 344.858 102.945,345.443 104.113,345.640 104.495 C 346.133 105.446,346.099 113.092,345.600 113.400 C 345.380 113.536,345.200 114.087,345.200 114.624 C 345.200 115.161,345.020 115.600,344.800 115.600 C 344.306 115.600,344.267 117.071,344.753 117.371 C 346.889 118.691,347.425 106.465,345.427 102.000 C 343.866 98.511,302.987 57.144,299.200 55.221 C 296.389 53.794,295.200 53.423,295.200 53.974 M268.800 67.689 C 263.873 72.748,263.409 73.309,266.400 70.596 C 269.110 68.137,273.392 63.639,273.166 63.489 C 273.075 63.427,271.110 65.318,268.800 67.689 M257.433 78.926 C 257.037 79.216,256.778 79.765,256.857 80.148 C 257.099 81.320,257.753 81.071,258.033 79.700 C 258.179 78.985,258.266 78.400,258.226 78.400 C 258.186 78.400,257.829 78.637,257.433 78.926 M262.000 85.506 C 262.000 85.926,266.735 90.607,266.927 90.377 C 267.009 90.280,265.933 89.072,264.538 87.693 C 263.142 86.314,262.000 85.330,262.000 85.506 M272.059 95.736 C 273.456 97.130,274.680 98.205,274.777 98.125 C 275.020 97.925,270.313 93.200,269.871 93.200 C 269.676 93.200,270.661 94.341,272.059 95.736 M276.800 100.304 C 276.800 100.723,283.134 107.008,283.325 106.779 C 283.406 106.680,281.972 105.113,280.137 103.295 C 278.301 101.477,276.800 100.131,276.800 100.304 M159.700 176.103 C 110.888 224.915,86.000 250.074,86.000 250.603 C 86.000 251.487,148.227 314.000,149.107 314.000 C 149.689 314.000,160.000 304.056,160.000 303.495 C 160.000 303.290,157.714 305.390,154.921 308.161 C 152.127 310.933,149.618 313.200,149.346 313.200 C 148.818 313.200,86.800 251.380,86.800 250.854 C 86.800 249.996,234.240 103.169,234.922 103.348 C 235.509 103.501,235.556 103.430,235.174 102.969 C 234.914 102.656,234.409 102.400,234.051 102.401 C 233.693 102.401,200.235 135.567,159.700 176.103 M238.400 106.547 C 238.400 106.998,239.969 108.565,240.194 108.339 C 240.306 108.228,239.948 107.714,239.398 107.199 C 238.849 106.683,238.400 106.389,238.400 106.547 M242.400 110.647 C 242.400 111.164,244.727 113.407,244.990 113.143 C 245.099 113.034,244.561 112.337,243.794 111.594 C 243.027 110.851,242.400 110.425,242.400 110.647 M289.293 112.938 C 290.672 114.333,291.880 115.409,291.977 115.327 C 292.207 115.135,287.526 110.400,287.106 110.400 C 286.930 110.400,287.914 111.542,289.293 112.938 M247.437 116.200 C 247.797 116.750,248.229 117.200,248.397 117.200 C 248.744 117.200,251.369 119.740,252.670 121.334 C 253.148 121.920,253.774 122.400,254.061 122.400 C 254.348 122.400,252.971 120.780,251.000 118.800 C 247.420 115.203,246.201 114.314,247.437 116.200 M293.200 116.703 C 293.200 117.122,300.333 124.208,300.524 123.979 C 300.605 123.881,298.991 122.133,296.936 120.095 C 294.881 118.057,293.200 116.531,293.200 116.703 M343.464 118.583 C 342.962 118.963,342.836 119.336,343.068 119.750 C 343.345 120.245,343.535 120.139,344.086 119.180 C 344.820 117.900,344.619 117.708,343.464 118.583 M340.512 122.631 C 339.366 123.824,338.564 124.800,338.729 124.800 C 339.155 124.800,342.990 120.856,342.774 120.641 C 342.676 120.543,341.658 121.439,340.512 122.631 M256.400 124.647 C 256.400 125.164,258.727 127.407,258.990 127.143 C 259.099 127.034,258.561 126.337,257.794 125.594 C 257.027 124.851,256.400 124.425,256.400 124.647 M331.813 131.187 C 328.960 134.032,326.710 136.427,326.813 136.509 C 326.916 136.591,329.399 134.261,332.330 131.329 C 335.262 128.398,337.512 126.003,337.330 126.008 C 337.149 126.012,334.666 128.343,331.813 131.187 M306.491 130.140 C 307.431 131.097,308.278 131.813,308.374 131.732 C 308.605 131.537,305.531 128.400,305.110 128.400 C 304.929 128.400,305.551 129.183,306.491 130.140 M261.200 129.455 C 261.200 129.927,263.584 132.150,263.828 131.906 C 263.916 131.817,263.361 131.137,262.594 130.394 C 261.827 129.651,261.200 129.229,261.200 129.455 M265.014 133.200 C 266.366 134.920,269.200 137.723,269.200 137.340 C 269.200 137.139,268.081 135.901,266.714 134.587 C 265.346 133.274,264.581 132.650,265.014 133.200 M310.400 133.903 C 310.400 134.321,318.333 142.209,318.523 141.980 C 318.605 141.881,316.811 139.953,314.536 137.696 C 312.261 135.438,310.400 133.732,310.400 133.903 M270.400 138.697 C 270.400 139.223,273.142 142.000,273.661 142.000 C 274.199 142.000,274.102 141.866,272.200 140.000 C 271.210 139.028,270.400 138.442,270.400 138.697 M322.891 140.260 C 321.951 141.217,321.329 142.000,321.510 142.000 C 321.931 142.000,325.005 138.863,324.774 138.668 C 324.678 138.587,323.831 139.303,322.891 140.260 M318.998 142.403 C 318.669 142.936,319.817 143.356,320.689 143.021 C 321.279 142.795,321.293 142.704,320.789 142.385 C 320.016 141.896,319.307 141.903,318.998 142.403 M275.200 143.447 C 275.200 143.964,277.527 146.207,277.790 145.943 C 277.899 145.834,277.361 145.137,276.594 144.394 C 275.827 143.651,275.200 143.225,275.200 143.447 M280.000 148.149 C 280.000 148.401,286.888 155.200,287.143 155.200 C 287.275 155.200,285.771 153.580,283.800 151.600 C 280.360 148.144,280.000 147.817,280.000 148.149 M289.200 157.416 C 289.200 157.938,296.313 165.020,296.575 164.759 C 296.685 164.649,295.070 162.862,292.987 160.787 C 290.904 158.713,289.200 157.196,289.200 157.416 M294.875 168.124 C 293.954 169.062,293.200 169.963,293.200 170.126 C 293.200 170.288,294.027 169.594,295.039 168.582 C 296.050 167.571,296.804 166.670,296.714 166.580 C 296.624 166.490,295.796 167.185,294.875 168.124 M290.091 173.060 C 289.151 174.017,288.529 174.800,288.710 174.800 C 289.131 174.800,292.205 171.663,291.974 171.468 C 291.878 171.387,291.031 172.103,290.091 173.060 M281.813 181.187 C 278.960 184.032,276.710 186.427,276.813 186.509 C 276.916 186.591,279.399 184.261,282.330 181.329 C 285.262 178.398,287.512 176.003,287.330 176.008 C 287.149 176.012,284.666 178.343,281.813 181.187 M272.891 190.260 C 271.951 191.217,271.329 192.000,271.510 192.000 C 271.931 192.000,275.005 188.863,274.774 188.668 C 274.678 188.587,273.831 189.303,272.891 190.260 M265.014 197.986 C 262.388 200.619,260.321 202.840,260.420 202.922 C 260.519 203.004,262.807 200.850,265.504 198.135 C 268.201 195.421,270.268 193.200,270.098 193.200 C 269.927 193.200,267.639 195.354,265.014 197.986 M256.491 206.660 C 255.551 207.617,254.929 208.400,255.110 208.400 C 255.531 208.400,258.605 205.263,258.374 205.068 C 258.278 204.987,257.431 205.703,256.491 206.660 M245.450 217.600 C 241.082 222.000,237.653 225.600,237.829 225.600 C 238.006 225.600,241.714 222.000,246.069 217.600 C 250.424 213.200,253.853 209.600,253.689 209.600 C 253.525 209.600,249.818 213.200,245.450 217.600 M231.414 231.586 C 228.788 234.219,226.721 236.440,226.820 236.522 C 226.919 236.604,229.207 234.450,231.904 231.735 C 234.601 229.021,236.668 226.800,236.498 226.800 C 236.327 226.800,234.039 228.954,231.414 231.586 M217.500 245.543 C 213.155 249.866,209.600 253.535,209.600 253.695 C 209.600 253.856,213.232 250.392,217.671 245.998 C 222.110 241.604,225.665 237.936,225.571 237.846 C 225.477 237.756,221.845 241.219,217.500 245.543 M206.491 256.660 C 205.551 257.617,204.929 258.400,205.110 258.400 C 205.531 258.400,208.605 255.263,208.374 255.068 C 208.278 254.987,207.431 255.703,206.491 256.660 M197.814 265.186 C 195.188 267.819,193.121 270.040,193.220 270.122 C 193.319 270.204,195.607 268.050,198.304 265.335 C 201.001 262.621,203.068 260.400,202.898 260.400 C 202.727 260.400,200.439 262.554,197.814 265.186 M190.091 273.060 C 189.151 274.017,188.529 274.800,188.710 274.800 C 189.131 274.800,192.205 271.663,191.974 271.468 C 191.878 271.387,191.031 272.103,190.091 273.060 M63.200 273.771 C 63.200 274.117,63.515 274.400,63.901 274.400 C 64.822 274.400,125.600 335.180,125.600 336.101 C 125.600 336.681,125.229 336.800,123.424 336.800 C 122.227 336.800,121.136 336.980,121.000 337.200 C 120.864 337.420,120.133 337.600,119.376 337.600 C 118.619 337.600,118.000 337.780,118.000 338.000 C 118.000 338.233,116.667 338.400,114.800 338.400 C 112.933 338.400,111.600 338.567,111.600 338.800 C 111.600 339.020,110.801 339.200,109.824 339.200 C 108.847 339.200,107.928 339.392,107.783 339.628 C 107.638 339.863,106.807 340.004,105.936 339.941 C 104.944 339.869,104.232 340.025,104.025 340.359 C 103.774 340.765,103.034 340.824,100.889 340.609 C 98.455 340.364,98.029 340.420,97.691 341.023 C 97.382 341.576,96.956 341.673,95.625 341.494 C 94.392 341.329,93.891 341.419,93.731 341.835 C 93.590 342.203,92.902 342.400,91.757 342.400 C 90.791 342.400,90.000 342.569,90.000 342.775 C 90.000 343.159,90.692 343.104,95.200 342.359 C 96.630 342.123,99.330 341.681,101.200 341.378 C 103.070 341.075,106.220 340.545,108.200 340.200 C 114.843 339.044,121.381 337.954,123.660 337.624 C 126.164 337.261,126.800 336.987,126.800 336.269 C 126.800 335.641,64.606 273.441,63.808 273.271 C 63.467 273.198,63.200 273.418,63.200 273.771 M62.779 274.800 C 62.740 274.910,62.455 276.530,62.147 278.400 C 61.838 280.270,61.417 282.610,61.211 283.600 C 60.893 285.129,60.389 288.290,59.442 294.700 C 59.307 295.616,59.409 296.000,59.787 296.000 C 60.183 296.000,60.267 295.577,60.107 294.384 C 59.938 293.125,60.048 292.653,60.606 292.245 C 61.177 291.828,61.269 291.394,61.063 290.103 C 60.862 288.848,60.942 288.431,61.419 288.248 C 61.932 288.051,61.989 287.512,61.762 285.006 C 61.568 282.866,61.621 282.000,61.945 282.000 C 62.218 282.000,62.400 281.279,62.400 280.200 C 62.400 279.210,62.577 278.400,62.792 278.400 C 63.406 278.400,63.683 276.686,63.246 275.591 C 63.029 275.046,62.819 274.690,62.779 274.800 M181.015 282.000 C 178.184 284.860,175.942 287.267,176.033 287.349 C 176.125 287.431,178.581 285.091,181.491 282.149 C 184.401 279.207,186.643 276.800,186.473 276.800 C 186.303 276.800,183.847 279.140,181.015 282.000 M172.891 290.260 C 171.951 291.217,171.329 292.000,171.510 292.000 C 171.931 292.000,175.005 288.863,174.774 288.668 C 174.678 288.587,173.831 289.303,172.891 290.260 M165.014 297.986 C 162.388 300.619,160.321 302.840,160.420 302.922 C 160.519 303.004,162.807 300.850,165.504 298.135 C 168.201 295.421,170.268 293.200,170.098 293.200 C 169.927 293.200,167.639 295.354,165.014 297.986 M58.314 300.800 C 57.945 303.330,57.462 306.300,57.241 307.400 C 57.020 308.500,56.460 311.740,55.995 314.600 C 55.531 317.460,54.770 322.140,54.304 325.000 C 51.497 342.222,54.313 347.188,66.590 346.666 C 72.784 346.402,74.796 346.097,73.937 345.552 C 73.169 345.066,70.493 345.120,70.325 345.626 C 70.097 346.310,60.463 346.341,60.201 345.658 C 60.087 345.361,59.740 345.214,59.430 345.333 C 59.120 345.452,58.761 345.276,58.633 344.941 C 58.505 344.607,58.177 344.408,57.904 344.499 C 57.307 344.698,56.122 343.256,54.900 340.842 C 53.922 338.911,53.508 329.600,54.400 329.600 C 54.620 329.600,54.800 328.891,54.800 328.024 C 54.800 327.157,54.995 326.326,55.234 326.179 C 55.496 326.017,55.617 324.905,55.538 323.372 C 55.453 321.724,55.581 320.659,55.904 320.336 C 56.177 320.063,56.400 319.077,56.400 318.144 C 56.400 317.211,56.604 316.321,56.852 316.168 C 57.158 315.979,57.223 315.014,57.053 313.186 C 56.850 310.994,56.915 310.441,57.401 310.255 C 57.809 310.098,58.000 309.456,58.000 308.236 C 58.000 307.252,58.180 306.336,58.400 306.200 C 58.620 306.064,58.800 305.241,58.800 304.371 C 58.800 303.501,59.001 302.468,59.246 302.076 C 59.553 301.584,59.582 300.560,59.338 298.781 L 58.985 296.200 58.314 300.800 M84.200 343.200 C 84.064 343.420,83.175 343.600,82.225 343.600 C 81.149 343.600,80.303 343.835,79.981 344.223 C 79.664 344.605,78.986 344.799,78.232 344.723 C 77.554 344.656,76.937 344.780,76.859 345.000 C 76.700 345.453,78.768 345.343,80.600 344.800 C 81.260 344.605,83.600 344.220,85.800 343.945 C 89.425 343.492,89.650 343.417,88.200 343.146 C 85.917 342.718,84.486 342.738,84.200 343.200 " stroke="none" fill="#bfd3bf" fill-rule="evenodd"></path><path id="path2" d="M282.800 54.222 C 280.399 55.329,256.400 78.761,256.400 79.998 C 256.400 80.786,319.216 143.600,320.003 143.600 C 322.686 143.600,346.873 116.815,346.783 113.943 C 346.774 113.644,346.350 114.402,345.841 115.626 C 344.358 119.192,340.778 123.881,339.935 123.360 C 339.740 123.239,339.630 123.297,339.690 123.489 C 339.845 123.982,323.891 139.829,323.402 139.667 C 323.181 139.593,323.137 139.670,323.304 139.837 C 323.682 140.215,322.053 142.000,321.330 142.000 C 321.039 142.000,320.845 142.214,320.900 142.476 C 320.955 142.738,320.675 143.023,320.279 143.110 C 319.420 143.297,256.800 80.867,256.800 79.824 C 256.800 79.471,257.250 78.978,257.800 78.727 C 258.350 78.477,258.800 78.020,258.800 77.712 C 258.800 77.405,258.935 77.230,259.100 77.324 C 259.495 77.549,261.219 75.752,260.907 75.441 C 260.775 75.308,260.955 75.200,261.306 75.200 C 261.658 75.200,262.060 74.840,262.200 74.400 C 262.340 73.960,262.722 73.600,263.051 73.600 C 263.379 73.600,263.536 73.420,263.400 73.200 C 263.264 72.980,263.433 72.800,263.776 72.800 C 264.119 72.800,264.400 72.649,264.400 72.464 C 264.400 71.968,273.140 63.273,273.388 63.522 C 273.505 63.638,273.600 63.403,273.600 63.000 C 273.600 62.597,273.711 62.378,273.848 62.514 C 274.158 62.824,275.200 61.815,275.200 61.205 C 275.200 60.956,275.335 60.820,275.500 60.902 C 275.891 61.097,277.588 59.321,277.293 59.026 C 277.168 58.902,277.285 58.800,277.552 58.800 C 277.818 58.800,278.486 58.350,279.036 57.800 C 279.586 57.250,279.914 56.800,279.764 56.800 C 278.820 56.800,282.444 54.744,285.000 53.829 C 285.934 53.495,286.267 53.246,285.800 53.232 C 285.360 53.219,284.010 53.664,282.800 54.222 M294.533 53.466 C 294.679 53.612,295.292 53.785,295.895 53.849 C 296.710 53.936,296.839 53.869,296.396 53.589 C 295.722 53.163,294.124 53.057,294.533 53.466 M300.449 55.700 C 300.550 55.755,310.338 65.430,322.200 77.200 C 334.062 88.970,343.685 98.473,343.584 98.318 C 343.006 97.433,300.956 55.600,300.644 55.600 C 300.436 55.600,300.349 55.645,300.449 55.700 M345.078 101.395 C 345.444 102.162,345.814 102.719,345.901 102.632 C 346.084 102.449,344.870 100.000,344.596 100.000 C 344.495 100.000,344.712 100.628,345.078 101.395 M232.378 103.099 C 231.187 104.395,231.165 104.450,232.222 103.499 C 232.894 102.895,233.683 102.400,233.975 102.400 C 234.267 102.400,248.644 116.527,265.925 133.794 C 283.206 151.061,297.440 165.093,297.557 164.977 C 297.831 164.702,234.723 101.600,234.173 101.600 C 233.944 101.600,233.137 102.275,232.378 103.099 M346.028 103.476 C 346.118 104.515,346.744 105.396,346.772 104.524 C 346.787 104.042,346.620 103.536,346.400 103.400 C 346.180 103.264,346.013 103.298,346.028 103.476 M220.615 114.785 C 215.567 119.837,211.518 124.022,211.618 124.085 C 211.718 124.148,215.936 120.015,220.990 114.900 C 226.045 109.785,230.094 105.600,229.987 105.600 C 229.881 105.600,225.663 109.733,220.615 114.785 M167.599 167.900 L 124.200 211.400 167.700 168.001 C 208.141 127.654,211.379 124.400,211.099 124.400 C 211.044 124.400,191.469 143.975,167.599 167.900 M297.300 165.888 C 297.025 165.986,296.800 166.225,296.800 166.419 C 296.800 166.946,290.364 173.416,289.954 173.300 C 289.759 173.245,289.645 173.410,289.700 173.667 C 289.755 173.924,289.396 174.345,288.902 174.603 C 288.409 174.861,288.069 175.145,288.148 175.236 C 288.226 175.326,285.345 178.323,281.745 181.895 C 278.145 185.467,275.197 188.257,275.194 188.095 C 275.191 187.933,274.951 188.250,274.661 188.800 C 274.372 189.350,273.879 189.740,273.567 189.667 C 273.255 189.593,273.137 189.670,273.304 189.837 C 273.688 190.222,272.047 192.000,271.307 192.000 C 271.002 192.000,270.825 192.135,270.914 192.300 C 271.127 192.696,258.939 204.806,258.635 204.502 C 258.506 204.372,258.400 204.530,258.400 204.852 C 258.400 205.586,255.558 208.400,254.816 208.400 C 254.514 208.400,254.372 208.506,254.502 208.635 C 254.798 208.931,240.389 223.436,239.934 223.300 C 239.750 223.245,239.645 223.342,239.700 223.515 C 239.831 223.926,223.926 239.831,223.515 239.700 C 223.342 239.645,223.245 239.750,223.300 239.934 C 223.436 240.389,208.931 254.798,208.635 254.502 C 208.506 254.372,208.400 254.530,208.400 254.852 C 208.400 255.586,205.558 258.400,204.816 258.400 C 204.514 258.400,204.372 258.506,204.502 258.635 C 204.806 258.939,192.696 271.127,192.300 270.914 C 192.135 270.825,192.000 271.002,192.000 271.307 C 192.000 272.047,190.222 273.688,189.837 273.304 C 189.670 273.137,189.593 273.255,189.667 273.567 C 189.740 273.879,189.350 274.372,188.800 274.661 C 188.250 274.951,187.933 275.191,188.095 275.194 C 188.257 275.197,185.467 278.145,181.895 281.745 C 178.323 285.345,175.326 288.226,175.236 288.148 C 175.145 288.069,174.861 288.409,174.603 288.902 C 174.345 289.396,173.924 289.755,173.667 289.700 C 173.410 289.645,173.245 289.740,173.300 289.911 C 173.454 290.390,149.790 314.000,149.156 314.000 C 148.391 314.000,86.111 251.599,85.879 250.600 C 85.694 249.804,85.693 249.804,85.646 250.604 C 85.592 251.540,147.929 314.128,149.096 314.310 C 149.782 314.417,298.404 166.243,297.983 165.871 C 297.882 165.782,297.575 165.790,297.300 165.888 M114.597 220.900 L 105.400 230.200 114.785 221.000 C 119.947 215.940,124.252 211.755,124.352 211.700 C 124.452 211.645,124.367 211.600,124.163 211.600 C 123.960 211.600,119.655 215.785,114.597 220.900 M101.986 233.500 L 99.800 235.800 102.100 233.614 C 104.237 231.582,104.583 231.200,104.286 231.200 C 104.224 231.200,103.189 232.235,101.986 233.500 M92.596 242.900 L 85.800 249.800 92.700 243.004 C 96.495 239.267,99.600 236.162,99.600 236.104 C 99.600 235.819,98.909 236.490,92.596 242.900 M62.475 274.500 C 61.813 277.129,61.552 279.510,62.005 278.800 C 62.216 278.470,62.391 277.536,62.394 276.724 C 62.397 275.912,62.580 275.136,62.800 275.000 C 63.020 274.864,63.200 274.390,63.200 273.947 C 63.200 272.287,65.088 274.073,95.608 304.593 C 127.104 336.090,127.519 336.537,125.900 337.188 C 125.405 337.387,125.210 337.561,125.467 337.575 C 129.457 337.791,128.876 337.134,95.903 304.128 C 62.531 270.724,63.264 271.373,62.475 274.500 M61.267 281.500 C 60.783 282.437,60.375 286.283,60.837 285.554 C 61.030 285.249,61.191 284.403,61.194 283.674 C 61.197 282.944,61.386 281.999,61.614 281.574 C 61.842 281.148,61.938 280.800,61.828 280.800 C 61.718 280.800,61.466 281.115,61.267 281.500 M59.841 288.853 C 59.733 289.374,59.535 290.700,59.402 291.800 C 59.269 292.900,59.055 294.430,58.927 295.200 C 58.799 295.970,58.818 296.484,58.971 296.343 C 59.285 296.051,60.429 288.296,60.193 288.060 C 60.108 287.975,59.950 288.332,59.841 288.853 M58.256 298.884 C 58.121 299.388,58.031 300.430,58.055 301.200 C 58.089 302.269,58.175 302.080,58.418 300.402 C 58.753 298.092,58.672 297.333,58.256 298.884 M57.660 303.667 C 57.627 304.254,57.496 305.064,57.370 305.467 C 57.152 306.160,57.165 306.161,57.595 305.490 C 57.846 305.099,57.977 304.289,57.886 303.690 L 57.720 302.600 57.660 303.667 M55.867 312.667 C 55.720 312.813,55.623 313.668,55.650 314.567 L 55.700 316.200 55.999 314.400 C 56.316 312.496,56.296 312.238,55.867 312.667 M55.100 316.933 C 54.935 317.336,54.811 318.236,54.825 318.933 C 54.850 320.169,54.860 320.176,55.244 319.215 C 55.460 318.674,55.584 317.774,55.518 317.215 C 55.417 316.347,55.357 316.306,55.100 316.933 M54.388 321.033 C 54.376 321.760,53.839 326.160,53.392 329.200 C 53.241 330.221,53.281 330.384,53.539 329.800 C 54.016 328.720,54.958 320.825,54.647 320.514 C 54.511 320.378,54.394 320.612,54.388 321.033 M121.484 337.849 C 121.348 337.986,119.113 338.430,116.518 338.836 C 113.923 339.242,110.180 339.856,108.200 340.200 C 103.162 341.078,98.462 341.848,93.857 342.551 C 91.688 342.882,89.813 343.253,89.690 343.376 C 89.567 343.499,89.632 343.594,89.833 343.586 C 90.578 343.557,107.001 340.903,109.600 340.391 C 110.590 340.196,113.650 339.662,116.400 339.204 C 119.150 338.746,122.210 338.221,123.200 338.039 L 125.000 337.707 123.367 337.653 C 122.468 337.624,121.621 337.712,121.484 337.849 M53.233 339.800 C 53.184 341.109,55.955 345.200,56.890 345.200 C 57.083 345.200,56.801 344.792,56.263 344.293 C 55.385 343.480,54.034 341.207,53.473 339.600 C 53.326 339.179,53.254 339.238,53.233 339.800 M83.878 344.199 C 81.941 344.480,80.231 344.846,80.078 345.011 C 79.925 345.177,80.250 345.206,80.800 345.076 C 81.350 344.946,83.020 344.715,84.511 344.563 C 86.002 344.411,87.318 344.133,87.435 343.944 C 87.552 343.755,87.592 343.620,87.524 343.644 C 87.456 343.668,85.815 343.918,83.878 344.199 M58.400 345.967 C 58.950 346.415,59.655 346.786,59.967 346.791 C 60.694 346.803,60.512 346.652,58.800 345.827 L 57.400 345.152 58.400 345.967 M75.000 345.705 C 74.120 345.902,72.590 346.221,71.600 346.414 C 69.853 346.756,69.865 346.760,72.000 346.558 C 75.531 346.224,77.192 345.936,77.385 345.624 C 77.620 345.245,76.966 345.267,75.000 345.705 " stroke="none" fill="#65a865" fill-rule="evenodd"></path><path id="path3" d="M0.000 200.000 L 0.000 400.000 200.000 400.000 L 400.000 400.000 400.000 200.000 L 400.000 0.000 200.000 0.000 L 0.000 0.000 0.000 200.000 M298.600 54.179 C 301.071 55.351,344.000 97.449,344.000 98.699 C 344.000 98.974,344.159 99.200,344.353 99.200 C 346.993 99.200,348.099 112.725,345.841 117.400 C 344.580 120.010,321.270 144.000,319.995 144.000 C 319.260 144.000,256.259 81.089,256.062 80.158 C 255.833 79.083,279.718 55.354,282.200 54.191 C 286.214 52.309,294.648 52.303,298.600 54.179 M266.283 132.900 C 283.487 150.115,297.736 164.666,297.947 165.235 C 298.353 166.330,150.695 314.800,149.201 314.800 C 148.511 314.800,85.200 251.635,85.200 250.947 C 85.200 250.696,85.438 250.033,85.729 249.472 C 86.362 248.252,98.549 236.000,99.130 236.000 C 99.352 236.000,99.901 235.407,100.349 234.682 C 101.246 233.232,103.368 231.200,103.987 231.200 C 104.204 231.200,104.699 230.705,105.087 230.100 C 105.475 229.495,109.689 225.130,114.453 220.400 C 119.216 215.670,123.358 211.556,123.657 211.257 C 124.367 210.547,210.547 124.367,211.257 123.657 C 211.556 123.358,215.670 119.216,220.400 114.453 C 225.130 109.689,229.495 105.475,230.100 105.087 C 230.705 104.699,231.200 104.207,231.200 103.994 C 231.200 103.144,232.988 101.600,233.973 101.600 C 234.803 101.600,241.052 107.654,266.283 132.900 M95.975 304.061 C 128.739 336.821,129.063 337.177,126.400 337.534 C 125.850 337.607,125.229 337.832,125.020 338.034 C 124.811 338.235,123.902 338.400,123.000 338.400 C 122.098 338.400,121.189 338.565,120.980 338.766 C 120.771 338.968,119.520 339.229,118.200 339.346 C 114.373 339.687,112.229 340.055,111.820 340.441 C 111.611 340.638,110.677 340.800,109.744 340.800 C 108.811 340.800,107.936 340.980,107.800 341.200 C 107.664 341.420,106.224 341.600,104.600 341.600 C 102.976 341.600,101.536 341.780,101.400 342.000 C 101.264 342.220,100.441 342.400,99.571 342.400 C 98.701 342.400,97.677 342.566,97.295 342.769 C 96.913 342.972,94.710 343.349,92.400 343.607 C 90.090 343.864,87.840 344.219,87.400 344.396 C 86.960 344.573,84.800 344.925,82.600 345.177 C 80.400 345.430,77.970 345.805,77.200 346.009 C 71.549 347.512,60.779 347.677,58.267 346.300 C 54.033 343.979,53.054 342.158,52.865 336.246 C 52.692 330.865,53.884 321.202,56.002 310.800 C 57.144 305.191,58.018 299.314,58.263 295.600 C 58.371 293.950,58.627 292.429,58.830 292.220 C 59.034 292.011,59.200 291.167,59.200 290.344 C 59.200 289.521,59.380 288.736,59.600 288.600 C 59.820 288.464,60.000 287.643,60.000 286.776 C 60.000 285.909,60.180 285.200,60.400 285.200 C 60.620 285.200,60.800 284.300,60.800 283.200 C 60.800 282.100,60.980 281.200,61.200 281.200 C 61.431 281.200,61.600 279.941,61.600 278.224 C 61.600 276.587,61.780 275.136,62.000 275.000 C 62.220 274.864,62.400 274.328,62.400 273.810 C 62.400 272.915,62.836 272.502,63.855 272.432 C 64.105 272.414,78.559 286.647,95.975 304.061 " stroke="none" fill="#245424" fill-rule="evenodd"></path><path id="path4" d="M287.900 53.096 C 289.275 53.174,291.525 53.174,292.900 53.096 C 294.275 53.018,293.150 52.954,290.400 52.954 C 287.650 52.954,286.525 53.018,287.900 53.096 M281.000 54.761 C 280.340 55.178,274.490 60.892,268.000 67.459 L 256.200 79.400 268.400 67.341 C 275.110 60.708,281.140 55.000,281.800 54.657 C 282.460 54.313,282.820 54.025,282.600 54.018 C 282.380 54.010,281.660 54.344,281.000 54.761 M298.000 54.158 C 298.000 54.270,298.675 54.669,299.500 55.043 C 300.325 55.417,302.170 56.820,303.600 58.162 L 306.200 60.600 303.800 58.077 C 302.480 56.690,300.770 55.265,300.000 54.910 C 299.230 54.556,298.465 54.195,298.300 54.109 C 298.135 54.023,298.000 54.045,298.000 54.158 M312.200 66.800 C 315.494 70.100,318.280 72.800,318.390 72.800 C 318.500 72.800,315.894 70.100,312.600 66.800 C 309.306 63.500,306.520 60.800,306.410 60.800 C 306.300 60.800,308.906 63.500,312.200 66.800 M331.203 85.800 C 338.131 92.840,343.882 98.548,343.983 98.484 C 344.084 98.420,338.415 92.660,331.386 85.684 L 318.606 73.000 331.203 85.800 M256.107 80.105 C 256.228 81.025,319.196 144.000,319.995 144.000 C 321.228 144.000,346.120 118.387,345.495 117.762 C 345.407 117.673,345.091 118.096,344.793 118.701 C 344.053 120.202,320.756 143.600,320.002 143.600 C 319.368 143.600,256.660 81.040,256.250 80.000 C 256.076 79.558,256.039 79.586,256.107 80.105 M232.043 102.637 C 230.766 104.105,231.225 104.235,232.604 102.796 C 233.234 102.138,233.568 101.600,233.347 101.600 C 233.125 101.600,232.538 102.067,232.043 102.637 M234.450 101.700 C 234.550 101.755,248.845 115.930,266.216 133.200 L 297.800 164.600 266.401 133.100 C 249.131 115.775,234.836 101.600,234.634 101.600 C 234.432 101.600,234.349 101.645,234.450 101.700 M346.955 109.400 C 346.956 112.260,347.020 113.378,347.097 111.883 C 347.174 110.389,347.174 108.049,347.096 106.683 C 347.018 105.318,346.955 106.540,346.955 109.400 M221.082 113.700 C 216.397 118.375,212.314 122.560,212.009 123.000 C 211.704 123.440,215.665 119.660,220.812 114.600 C 225.959 109.540,230.252 105.355,230.352 105.300 C 230.452 105.245,230.324 105.200,230.067 105.200 C 229.811 105.200,225.768 109.025,221.082 113.700 M167.354 167.354 C 143.509 191.198,124.000 210.867,124.000 211.062 C 124.000 211.257,133.831 201.580,145.848 189.556 C 157.864 177.533,177.533 157.864,189.556 145.848 C 201.580 133.831,211.257 124.000,211.062 124.000 C 210.867 124.000,191.198 143.509,167.354 167.354 M224.000 240.200 C 183.190 281.010,149.531 314.400,149.202 314.400 C 148.872 314.400,137.712 303.555,124.401 290.300 L 100.200 266.200 124.399 290.500 C 137.708 303.865,148.868 314.800,149.199 314.800 C 149.530 314.800,183.280 281.320,224.200 240.400 C 265.120 199.480,298.509 166.000,298.399 166.000 C 298.289 166.000,264.810 199.390,224.000 240.200 M114.148 220.586 C 109.227 225.528,105.200 229.788,105.200 230.053 C 105.200 230.317,105.245 230.452,105.300 230.352 C 105.355 230.252,109.539 225.992,114.597 220.885 C 119.655 215.778,123.637 211.600,123.445 211.600 C 123.253 211.600,119.070 215.644,114.148 220.586 M102.173 232.521 C 99.969 234.818,99.791 235.449,101.921 233.415 C 103.064 232.323,104.000 231.378,104.000 231.315 C 104.000 230.912,103.229 231.421,102.173 232.521 M92.241 242.429 C 88.744 245.942,85.963 248.896,86.060 248.994 C 86.158 249.091,89.197 246.208,92.814 242.586 C 96.431 238.964,99.213 236.009,98.995 236.021 C 98.778 236.033,95.739 238.916,92.241 242.429 M85.467 249.867 C 84.700 250.634,85.828 252.027,92.700 258.804 L 100.200 266.200 92.843 258.739 C 86.912 252.724,85.529 251.116,85.706 250.439 C 85.939 249.547,85.894 249.439,85.467 249.867 M61.759 275.362 C 61.641 275.671,61.607 276.526,61.683 277.262 C 61.806 278.435,61.847 278.366,62.015 276.700 C 62.211 274.752,62.139 274.374,61.759 275.362 M60.101 286.600 C 60.105 287.480,60.187 287.793,60.283 287.295 C 60.379 286.798,60.375 286.078,60.275 285.695 C 60.175 285.313,60.096 285.720,60.101 286.600 M59.467 288.667 C 59.320 288.813,59.200 289.587,59.200 290.387 C 59.200 291.186,59.011 292.029,58.780 292.260 C 58.543 292.497,58.413 293.879,58.480 295.440 C 58.600 298.197,58.601 298.195,59.219 293.300 C 59.560 290.605,59.815 288.400,59.786 288.400 C 59.757 288.400,59.613 288.520,59.467 288.667 M57.849 299.015 C 57.712 299.373,57.624 300.326,57.653 301.133 C 57.701 302.444,57.738 302.387,57.995 300.600 C 58.303 298.471,58.255 297.958,57.849 299.015 M57.249 303.800 C 57.216 304.240,57.096 305.050,56.983 305.600 L 56.777 306.600 57.206 305.619 C 57.442 305.079,57.561 304.269,57.472 303.819 C 57.313 303.021,57.307 303.021,57.249 303.800 M56.229 309.300 C 55.854 311.117,55.743 312.817,56.019 312.513 C 56.175 312.341,56.392 311.345,56.502 310.300 C 56.710 308.322,56.551 307.741,56.229 309.300 M55.267 314.467 C 55.230 315.274,55.096 316.264,54.970 316.667 C 54.753 317.357,54.766 317.359,55.194 316.693 C 55.443 316.304,55.577 315.314,55.491 314.493 L 55.334 313.000 55.267 314.467 M54.256 320.084 C 54.121 320.588,54.028 321.450,54.049 322.000 C 54.072 322.589,54.231 322.271,54.436 321.225 C 54.803 319.352,54.673 318.527,54.256 320.084 M52.957 334.800 C 52.957 337.770,53.020 338.985,53.097 337.500 C 53.174 336.015,53.174 333.585,53.097 332.100 C 53.020 330.615,52.957 331.830,52.957 334.800 M126.400 334.687 C 126.400 334.943,126.580 335.264,126.800 335.400 C 127.323 335.723,127.316 337.076,126.790 337.337 C 126.565 337.449,126.610 337.494,126.890 337.437 C 127.663 337.281,127.732 336.123,127.028 335.118 C 126.683 334.625,126.400 334.431,126.400 334.687 M123.200 338.000 L 121.400 338.280 123.076 338.340 C 123.998 338.373,124.864 338.220,125.000 338.000 C 125.136 337.780,125.192 337.627,125.124 337.660 C 125.056 337.693,124.190 337.846,123.200 338.000 M119.400 338.800 L 117.800 339.086 119.276 339.143 C 120.088 339.174,120.864 339.020,121.000 338.800 C 121.136 338.580,121.192 338.426,121.124 338.457 C 121.056 338.488,120.280 338.642,119.400 338.800 M113.600 339.634 C 111.161 340.076,107.345 340.797,105.400 341.183 L 103.800 341.500 105.676 341.550 C 106.708 341.577,107.664 341.420,107.800 341.200 C 107.936 340.980,108.836 340.800,109.800 340.800 C 110.764 340.800,111.664 340.620,111.800 340.400 C 111.936 340.180,112.712 339.997,113.524 339.994 C 114.336 339.991,115.270 339.813,115.600 339.600 C 116.269 339.168,116.157 339.170,113.600 339.634 M99.600 342.000 L 97.800 342.280 99.476 342.340 C 100.398 342.373,101.264 342.220,101.400 342.000 C 101.536 341.780,101.592 341.627,101.524 341.660 C 101.456 341.693,100.590 341.846,99.600 342.000 M95.600 342.800 L 93.800 343.080 95.476 343.140 C 96.398 343.173,97.264 343.020,97.400 342.800 C 97.536 342.580,97.592 342.427,97.524 342.460 C 97.456 342.493,96.590 342.646,95.600 342.800 M89.800 343.478 C 88.920 343.557,87.840 343.791,87.400 343.999 C 86.960 344.206,85.970 344.442,85.200 344.524 C 83.873 344.664,83.887 344.675,85.476 344.736 C 86.398 344.771,87.264 344.620,87.400 344.400 C 87.536 344.180,88.312 343.990,89.124 343.977 C 89.936 343.964,91.320 343.805,92.200 343.623 C 93.962 343.258,92.938 343.197,89.800 343.478 M79.600 345.095 C 78.610 345.181,77.661 345.387,77.491 345.554 C 77.321 345.721,78.491 345.705,80.091 345.519 C 84.806 344.970,84.464 344.675,79.600 345.095 M57.299 345.778 C 57.903 346.093,58.623 346.468,58.899 346.610 C 59.174 346.753,58.950 346.498,58.400 346.044 C 57.850 345.589,57.130 345.215,56.800 345.211 C 56.470 345.208,56.694 345.463,57.299 345.778 M74.900 346.276 C 75.285 346.376,75.915 346.376,76.300 346.276 C 76.685 346.175,76.370 346.093,75.600 346.093 C 74.830 346.093,74.515 346.175,74.900 346.276 M62.518 347.098 C 64.233 347.173,66.933 347.172,68.518 347.097 C 70.103 347.021,68.700 346.959,65.400 346.960 C 62.100 346.961,60.803 347.022,62.518 347.098 " stroke="none" fill="#4c9c4c" fill-rule="evenodd"></path></g></svg>