<svg id="svg" version="1.1" xmlns="http://www.w3.org/2000/svg" xmlns:xlink="http://www.w3.org/1999/xlink" width="400" height="400" viewBox="0, 0, 400,400"><g id="svgg"><path id="path0" d="M285.923 53.976 C 281.995 55.224,280.587 56.395,268.794 68.213 L 257.016 80.016 288.507 111.506 L 319.998 142.997 331.791 131.209 C 346.221 116.785,346.191 116.831,346.196 109.400 L 346.200 104.600 344.467 101.408 C 341.621 96.166,302.829 57.538,298.184 55.320 C 294.837 53.722,288.804 53.061,285.923 53.976 M160.100 176.500 C 119.565 217.036,86.401 250.471,86.403 250.800 C 86.405 251.446,148.375 313.600,149.016 313.600 C 149.659 313.600,296.800 166.244,296.800 165.600 C 296.799 164.954,234.828 102.800,234.185 102.800 C 233.973 102.800,200.634 135.965,160.100 176.500 M63.386 274.300 C 63.032 275.126,62.710 276.836,61.614 283.700 C 59.781 295.186,59.211 298.706,58.847 300.800 C 58.637 302.010,58.193 304.620,57.861 306.600 C 57.528 308.580,57.148 310.830,57.016 311.600 C 56.884 312.370,56.424 315.250,55.993 318.000 C 55.563 320.750,54.929 324.530,54.585 326.400 C 51.564 342.807,56.391 348.567,71.000 345.989 C 76.563 345.007,80.931 344.274,84.000 343.807 C 85.870 343.523,87.400 343.251,87.400 343.203 C 87.400 343.155,89.470 342.793,92.000 342.398 C 94.530 342.003,98.400 341.377,100.600 341.007 C 105.627 340.162,109.989 339.433,114.600 338.669 C 116.580 338.340,118.470 337.970,118.800 337.846 C 119.130 337.722,120.816 337.451,122.547 337.243 C 124.278 337.036,125.893 336.667,126.137 336.423 C 126.538 336.022,64.743 273.600,63.944 273.600 C 63.802 273.600,63.551 273.915,63.386 274.300 " stroke="none" fill="#fafbfa" fill-rule="evenodd"></path><path id="path1" d="M0.000 200.000 L 0.000 400.000 200.000 400.000 L 400.000 400.000 400.000 200.000 L 400.000 0.000 200.000 0.000 L 0.000 0.000 0.000 200.000 M298.775 54.265 C 302.093 55.895,342.277 95.647,344.839 99.834 C 347.724 104.548,348.169 112.526,345.820 117.400 C 344.557 120.018,321.291 144.000,320.014 144.000 C 319.229 144.000,256.000 80.798,256.000 80.013 C 256.000 78.568,280.958 54.644,283.439 53.710 C 287.324 52.249,295.256 52.536,298.775 54.265 M266.256 133.182 C 287.104 154.055,297.838 165.075,297.911 165.682 C 298.040 166.744,150.327 314.800,149.140 314.800 C 147.760 314.800,85.600 252.063,85.600 250.670 C 85.600 249.279,232.662 101.613,234.056 101.604 C 234.416 101.602,248.906 115.812,266.256 133.182 M95.979 304.021 C 113.370 321.413,127.597 335.858,127.594 336.121 C 127.579 337.314,125.733 338.125,122.000 338.577 C 119.994 338.820,115.943 339.484,113.200 340.020 C 112.210 340.214,109.150 340.731,106.400 341.171 C 103.650 341.610,100.230 342.164,98.800 342.403 C 97.370 342.641,95.120 343.002,93.800 343.205 C 92.480 343.409,90.500 343.746,89.400 343.954 C 87.430 344.327,80.450 345.481,73.400 346.600 C 55.561 349.432,50.670 344.533,53.432 326.600 C 54.646 318.714,55.597 312.966,56.013 311.000 C 56.998 306.349,57.268 304.853,57.601 302.200 C 57.795 300.660,58.142 298.230,58.373 296.800 C 58.604 295.370,58.911 293.069,59.055 291.687 C 59.200 290.305,59.472 289.079,59.659 288.964 C 59.847 288.848,60.000 287.964,60.000 287.000 C 60.000 286.036,60.180 285.136,60.400 285.000 C 60.620 284.864,60.800 283.953,60.800 282.976 C 60.800 281.999,60.941 281.200,61.113 281.200 C 61.285 281.200,61.630 279.481,61.880 277.381 C 62.330 273.602,62.799 272.400,63.828 272.400 C 64.119 272.400,78.587 286.630,95.979 304.021 " stroke="none" fill="#349c34" fill-rule="evenodd"></path><path id="path2" d="M283.968 54.120 C 282.741 54.635,281.121 55.534,280.368 56.119 C 277.927 58.018,256.800 79.461,256.800 80.040 C 256.800 80.812,319.249 143.200,320.021 143.200 C 320.362 143.200,326.046 137.755,332.653 131.100 C 346.803 116.846,346.800 116.851,346.800 109.023 C 346.800 101.549,347.452 102.396,322.443 77.395 C 297.470 52.430,298.849 53.480,290.800 53.293 C 286.736 53.198,285.940 53.294,283.968 54.120 M298.184 55.320 C 302.829 57.538,341.621 96.166,344.467 101.408 L 346.200 104.600 346.196 109.400 C 346.191 116.831,346.221 116.785,331.791 131.209 L 319.998 142.997 288.507 111.506 L 257.016 80.016 268.794 68.213 C 283.102 53.875,283.579 53.563,291.000 53.717 C 294.722 53.794,295.221 53.906,298.184 55.320 M159.900 175.900 C 106.610 229.191,86.000 250.045,86.000 250.677 C 86.000 251.747,148.051 314.000,149.118 314.000 C 149.873 314.000,297.600 166.482,297.600 165.728 C 297.600 165.224,234.599 102.000,234.097 102.000 C 233.933 102.000,200.544 135.255,159.900 175.900 M265.685 133.900 C 282.798 151.005,296.800 165.270,296.800 165.600 C 296.800 166.244,149.659 313.600,149.016 313.600 C 148.375 313.600,86.405 251.446,86.403 250.800 C 86.400 250.157,233.540 102.800,234.185 102.800 C 234.397 102.800,248.572 116.795,265.685 133.900 M62.986 273.900 C 62.821 274.285,62.548 275.410,62.378 276.400 C 62.209 277.390,61.771 279.910,61.406 282.000 C 60.784 285.558,59.918 290.911,58.591 299.400 C 58.049 302.867,57.885 305.034,58.227 304.200 C 58.318 303.980,58.580 302.630,58.811 301.200 C 59.334 297.958,60.546 290.393,61.614 283.700 C 63.005 274.985,63.325 273.600,63.944 273.600 C 64.743 273.600,126.538 336.022,126.137 336.423 C 125.893 336.667,124.278 337.036,122.547 337.243 C 120.816 337.451,119.130 337.722,118.800 337.846 C 118.470 337.970,116.580 338.340,114.600 338.669 C 109.989 339.433,105.627 340.162,100.600 341.007 C 98.400 341.377,94.530 342.003,92.000 342.398 C 89.470 342.793,87.400 343.155,87.400 343.203 C 87.400 343.251,85.870 343.523,84.000 343.807 C 80.931 344.274,76.563 345.007,71.000 345.989 C 56.391 348.567,51.564 342.807,54.585 326.400 C 54.929 324.530,55.562 320.750,55.991 318.000 C 56.420 315.250,57.041 311.290,57.371 309.200 C 58.059 304.850,58.084 304.583,57.771 304.896 C 57.644 305.022,57.381 306.087,57.185 307.263 C 56.662 310.408,55.302 318.662,54.330 324.600 C 53.323 330.751,52.964 338.007,53.567 340.035 C 55.260 345.731,61.760 348.051,71.400 346.399 C 75.043 345.775,80.532 344.855,85.800 343.985 C 88.660 343.513,92.440 342.887,94.200 342.594 C 95.960 342.301,99.740 341.675,102.600 341.202 C 111.574 339.718,114.498 339.221,118.000 338.585 C 119.870 338.246,122.417 337.817,123.660 337.632 C 126.255 337.247,126.800 336.990,126.800 336.152 C 126.800 335.378,64.644 273.200,63.870 273.200 C 63.549 273.200,63.151 273.515,62.986 273.900 " stroke="none" fill="#a4c4a4" fill-rule="evenodd"></path><path id="path3" d="M299.000 55.059 C 300.100 55.620,302.170 57.187,303.600 58.540 L 306.200 61.000 303.800 58.468 C 301.738 56.293,298.334 53.958,297.313 54.019 C 297.141 54.029,297.900 54.497,299.000 55.059 M307.983 62.900 C 308.964 63.945,309.819 64.800,309.883 64.800 C 310.184 64.800,309.866 64.441,308.100 62.783 L 306.200 61.000 307.983 62.900 M311.983 66.900 C 312.964 67.945,313.819 68.800,313.883 68.800 C 314.184 68.800,313.866 68.441,312.100 66.783 L 310.200 65.000 311.983 66.900 M324.393 79.300 C 328.287 83.294,328.800 83.782,328.800 83.493 C 328.800 83.434,326.865 81.499,324.500 79.193 L 320.200 75.000 324.393 79.300 M287.999 112.100 C 305.269 129.425,319.669 143.586,319.999 143.568 C 320.533 143.540,320.533 143.513,320.000 143.325 C 319.670 143.209,305.270 129.048,288.000 111.857 L 256.600 80.600 287.999 112.100 M331.800 86.800 C 333.328 88.340,334.669 89.600,334.779 89.600 C 334.889 89.600,333.728 88.340,332.200 86.800 C 330.672 85.260,329.331 84.000,329.221 84.000 C 329.111 84.000,330.272 85.260,331.800 86.800 M345.478 102.195 C 345.844 102.962,346.214 103.519,346.301 103.432 C 346.484 103.249,345.270 100.800,344.996 100.800 C 344.895 100.800,345.112 101.428,345.478 102.195 M159.600 175.900 L 85.800 249.800 159.700 176.000 C 200.345 135.411,233.600 102.156,233.600 102.100 C 233.600 101.821,228.214 107.193,159.600 175.900 M332.406 131.358 L 320.611 143.400 332.131 132.000 C 341.576 122.652,345.304 118.754,344.314 119.258 C 344.251 119.290,338.893 124.735,332.406 131.358 M292.993 170.900 L 288.600 175.400 293.100 171.007 C 297.280 166.926,297.782 166.400,297.493 166.400 C 297.434 166.400,295.409 168.425,292.993 170.900 M278.597 185.300 L 269.800 194.200 278.700 185.403 C 283.595 180.565,287.600 176.560,287.600 176.503 C 287.600 176.220,286.770 177.030,278.597 185.300 M264.993 198.900 L 260.600 203.400 265.100 199.007 C 269.280 194.926,269.782 194.400,269.493 194.400 C 269.434 194.400,267.409 196.425,264.993 198.900 M257.186 206.700 L 255.000 209.000 257.300 206.814 C 258.565 205.611,259.600 204.576,259.600 204.514 C 259.600 204.217,259.218 204.563,257.186 206.700 M248.600 215.200 C 245.306 218.500,242.700 221.200,242.810 221.200 C 242.920 221.200,245.706 218.500,249.000 215.200 C 252.294 211.900,254.900 209.200,254.790 209.200 C 254.680 209.200,251.894 211.900,248.600 215.200 M238.386 225.500 L 236.200 227.800 238.500 225.614 C 240.637 223.582,240.983 223.200,240.686 223.200 C 240.624 223.200,239.589 224.235,238.386 225.500 M231.792 232.100 L 227.800 236.200 231.900 232.208 C 234.155 230.012,236.000 228.167,236.000 228.108 C 236.000 227.818,235.501 228.292,231.792 232.100 M225.186 238.700 L 223.000 241.000 225.300 238.814 C 227.437 236.782,227.783 236.400,227.486 236.400 C 227.424 236.400,226.389 237.435,225.186 238.700 M215.000 248.800 C 211.706 252.100,209.100 254.800,209.210 254.800 C 209.320 254.800,212.106 252.100,215.400 248.800 C 218.694 245.500,221.300 242.800,221.190 242.800 C 221.080 242.800,218.294 245.500,215.000 248.800 M85.646 250.630 C 85.621 251.087,86.095 251.897,86.700 252.430 L 87.800 253.400 86.940 252.400 C 86.467 251.850,85.993 251.040,85.886 250.600 C 85.699 249.825,85.691 249.826,85.646 250.630 M206.386 257.500 L 204.200 259.800 206.500 257.614 C 208.637 255.582,208.983 255.200,208.686 255.200 C 208.624 255.200,207.589 256.235,206.386 257.500 M198.593 265.300 L 194.200 269.800 198.700 265.407 C 201.175 262.991,203.200 260.966,203.200 260.907 C 203.200 260.618,202.674 261.120,198.593 265.300 M184.997 278.900 L 176.200 287.800 185.100 279.003 C 189.995 274.165,194.000 270.160,194.000 270.103 C 194.000 269.820,193.170 270.630,184.997 278.900 M60.893 283.600 C 60.893 284.370,60.975 284.685,61.076 284.300 C 61.176 283.915,61.176 283.285,61.076 282.900 C 60.975 282.515,60.893 282.830,60.893 283.600 M166.197 297.700 L 157.400 306.600 166.300 297.803 C 171.195 292.965,175.200 288.960,175.200 288.903 C 175.200 288.620,174.370 289.430,166.197 297.700 M59.449 291.815 C 59.312 292.173,59.223 293.036,59.250 293.733 C 59.292 294.787,59.350 294.698,59.599 293.200 C 59.917 291.286,59.859 290.748,59.449 291.815 M57.693 303.600 C 57.693 304.370,57.775 304.685,57.876 304.300 C 57.976 303.915,57.976 303.285,57.876 302.900 C 57.775 302.515,57.693 302.830,57.693 303.600 M56.860 307.667 C 56.827 308.254,56.696 309.064,56.570 309.467 C 56.352 310.160,56.365 310.161,56.795 309.490 C 57.046 309.099,57.177 308.289,57.086 307.690 L 56.920 306.600 56.860 307.667 M153.000 310.800 C 149.540 314.280,149.157 314.444,147.626 313.100 L 146.600 312.200 147.570 313.300 C 149.003 314.926,149.494 314.725,153.200 311.000 C 155.060 309.130,156.492 307.600,156.382 307.600 C 156.271 307.600,154.750 309.040,153.000 310.800 M55.701 314.600 C 55.705 315.480,55.787 315.793,55.883 315.295 C 55.979 314.798,55.975 314.078,55.875 313.695 C 55.775 313.313,55.696 313.720,55.701 314.600 M54.101 324.600 C 54.105 325.480,54.187 325.793,54.283 325.295 C 54.379 324.798,54.375 324.078,54.275 323.695 C 54.175 323.313,54.096 323.720,54.101 324.600 M53.693 327.600 C 53.693 328.370,53.775 328.685,53.876 328.300 C 53.976 327.915,53.976 327.285,53.876 326.900 C 53.775 326.515,53.693 326.830,53.693 327.600 M126.401 335.279 C 127.051 336.063,126.860 336.800,125.900 337.212 C 125.208 337.510,125.175 337.576,125.757 337.500 C 126.982 337.339,127.521 336.134,126.695 335.406 C 126.314 335.071,126.182 335.014,126.401 335.279 M121.246 337.963 C 120.907 338.178,121.451 338.232,122.646 338.104 C 123.721 337.988,124.675 337.828,124.767 337.747 C 125.129 337.428,121.765 337.635,121.246 337.963 M116.600 338.800 L 115.000 339.086 116.400 339.137 C 117.170 339.165,118.070 339.013,118.400 338.800 C 119.055 338.377,118.962 338.377,116.600 338.800 M107.400 340.419 C 106.842 340.671,107.085 340.707,108.200 340.538 C 109.080 340.404,109.875 340.228,109.967 340.147 C 110.310 339.844,108.168 340.071,107.400 340.419 M102.600 341.200 L 101.000 341.486 102.400 341.537 C 103.170 341.565,104.070 341.413,104.400 341.200 C 105.055 340.777,104.962 340.777,102.600 341.200 M98.900 341.876 C 99.285 341.976,99.915 341.976,100.300 341.876 C 100.685 341.775,100.370 341.693,99.600 341.693 C 98.830 341.693,98.515 341.775,98.900 341.876 M92.600 342.800 L 91.000 343.086 92.400 343.137 C 93.170 343.165,94.070 343.013,94.400 342.800 C 95.055 342.377,94.962 342.377,92.600 342.800 M82.800 344.400 C 81.416 344.691,81.414 344.695,82.600 344.741 C 83.260 344.767,84.070 344.613,84.400 344.400 C 85.066 343.970,84.845 343.970,82.800 344.400 M56.000 344.579 C 56.000 344.689,56.540 345.059,57.200 345.400 C 57.860 345.741,58.400 345.931,58.400 345.821 C 58.400 345.711,57.860 345.341,57.200 345.000 C 56.540 344.659,56.000 344.469,56.000 344.579 M77.700 345.476 C 78.085 345.576,78.715 345.576,79.100 345.476 C 79.485 345.375,79.170 345.293,78.400 345.293 C 77.630 345.293,77.315 345.375,77.700 345.476 M74.900 345.876 C 75.285 345.976,75.915 345.976,76.300 345.876 C 76.685 345.775,76.370 345.693,75.600 345.693 C 74.830 345.693,74.515 345.775,74.900 345.876 " stroke="none" fill="#7aaf7a" fill-rule="evenodd"></path><path id="path4" d="M285.113 53.128 C 284.736 53.278,286.758 53.337,289.606 53.260 C 293.608 53.152,295.216 53.267,296.678 53.765 C 297.718 54.119,298.396 54.252,298.185 54.059 C 296.959 52.944,287.313 52.257,285.113 53.128 M282.392 54.132 C 280.999 54.778,280.003 55.587,278.604 57.212 C 277.551 58.433,277.623 58.401,279.204 56.943 C 280.192 56.031,281.720 54.914,282.600 54.461 C 284.284 53.592,284.119 53.331,282.392 54.132 M321.914 76.496 C 333.651 88.213,343.709 98.565,344.265 99.500 C 345.564 101.685,345.945 101.724,344.726 99.547 C 343.928 98.123,301.820 55.607,300.905 55.302 C 300.723 55.241,310.177 64.778,321.914 76.496 M275.402 59.998 C 275.003 60.439,274.807 60.800,274.967 60.800 C 275.388 60.800,276.528 59.595,276.312 59.379 C 276.211 59.278,275.802 59.556,275.402 59.998 M268.188 67.288 C 264.744 70.637,261.190 74.282,260.290 75.388 C 259.381 76.506,260.429 75.622,262.648 73.400 C 264.845 71.200,268.511 67.555,270.794 65.300 C 273.077 63.045,274.834 61.200,274.697 61.200 C 274.561 61.200,271.631 63.940,268.188 67.288 M256.870 78.526 C 256.391 79.035,256.000 79.710,256.000 80.025 C 256.000 80.794,319.232 144.000,320.002 144.000 C 320.334 144.000,325.914 138.646,332.403 132.103 L 344.200 120.206 332.384 131.903 C 325.886 138.336,320.304 143.600,319.981 143.600 C 319.285 143.600,256.400 80.807,256.400 80.112 C 256.400 79.851,256.858 79.178,257.418 78.618 C 257.978 78.058,258.280 77.600,258.088 77.600 C 257.896 77.600,257.348 78.017,256.870 78.526 M230.191 104.900 L 227.000 108.200 230.209 105.100 C 231.974 103.395,233.685 102.000,234.012 102.000 C 234.340 102.000,243.066 110.460,253.404 120.800 C 263.742 131.140,272.310 139.600,272.444 139.600 C 272.578 139.600,264.140 131.050,253.693 120.600 C 243.246 110.150,234.402 101.600,234.040 101.600 C 233.678 101.600,231.945 103.085,230.191 104.900 M346.737 108.536 C 346.846 112.743,346.741 114.166,346.232 115.385 C 345.879 116.231,345.659 116.993,345.745 117.078 C 346.781 118.114,347.797 106.250,346.872 103.913 C 346.722 103.535,346.662 105.615,346.737 108.536 M218.595 116.500 L 212.200 123.000 218.700 116.605 C 224.739 110.663,225.381 110.000,225.095 110.000 C 225.038 110.000,222.113 112.925,218.595 116.500 M344.653 118.900 L 343.933 120.200 344.758 119.200 C 345.489 118.313,345.814 117.600,345.486 117.600 C 345.424 117.600,345.049 118.185,344.653 118.900 M209.578 125.500 L 208.200 127.000 209.700 125.622 C 211.096 124.338,211.384 124.000,211.078 124.000 C 211.012 124.000,210.337 124.675,209.578 125.500 M200.596 134.500 L 193.400 141.800 200.700 134.604 C 204.715 130.646,208.000 127.361,208.000 127.304 C 208.000 127.019,207.281 127.718,200.596 134.500 M274.383 141.700 C 275.364 142.745,276.219 143.600,276.283 143.600 C 276.584 143.600,276.266 143.241,274.500 141.583 L 272.600 139.800 274.383 141.700 M167.399 167.700 L 143.400 191.800 167.500 167.801 C 180.755 154.602,191.600 143.757,191.600 143.701 C 191.600 143.420,189.707 145.298,167.399 167.700 M276.800 143.979 C 276.800 144.105,280.078 147.446,284.085 151.404 C 288.092 155.362,291.287 158.471,291.185 158.313 C 290.793 157.705,276.800 143.762,276.800 143.979 M293.183 160.500 C 294.164 161.545,295.019 162.400,295.083 162.400 C 295.384 162.400,295.066 162.041,293.300 160.383 L 291.400 158.600 293.183 160.500 M295.600 162.645 C 295.600 162.874,296.050 163.483,296.600 164.000 C 298.489 165.775,298.978 165.222,269.679 194.500 C 254.323 209.845,241.859 222.400,241.981 222.400 C 242.687 222.400,297.998 166.498,297.984 165.799 C 297.967 164.998,295.600 161.866,295.600 162.645 M134.196 200.900 L 127.000 208.200 134.300 201.004 C 141.082 194.319,141.781 193.600,141.496 193.600 C 141.439 193.600,138.154 196.885,134.196 200.900 M125.178 209.900 L 123.800 211.400 125.300 210.022 C 126.696 208.738,126.984 208.400,126.678 208.400 C 126.612 208.400,125.937 209.075,125.178 209.900 M116.195 218.900 L 109.800 225.400 116.300 219.005 C 119.875 215.487,122.800 212.562,122.800 212.505 C 122.800 212.219,122.137 212.861,116.195 218.900 M231.907 232.135 C 226.905 237.201,222.863 241.397,222.925 241.458 C 222.986 241.520,227.257 237.347,232.415 232.185 C 237.573 227.023,241.615 222.828,241.397 222.862 C 241.179 222.896,236.908 227.069,231.907 232.135 M96.615 238.385 C 90.467 244.536,85.518 249.621,85.618 249.685 C 85.718 249.748,90.836 244.715,96.992 238.500 C 103.148 232.285,108.097 227.200,107.989 227.200 C 107.882 227.200,102.764 232.233,96.615 238.385 M189.200 274.897 C 171.050 293.101,154.850 309.391,153.200 311.099 C 151.550 312.806,166.482 297.965,186.383 278.118 C 206.284 258.271,222.484 241.981,222.383 241.917 C 222.282 241.852,207.350 256.694,189.200 274.897 M86.415 252.551 C 89.579 256.251,148.607 314.794,149.146 314.768 C 149.689 314.742,149.698 314.701,149.200 314.525 C 148.870 314.409,134.387 300.158,117.015 282.857 C 99.644 265.556,85.874 251.918,86.415 252.551 M62.880 272.880 C 62.616 273.144,62.411 273.639,62.425 273.980 C 62.441 274.360,62.591 274.252,62.812 273.700 C 63.283 272.530,64.036 272.561,65.199 273.798 C 65.714 274.348,66.217 274.717,66.314 274.619 C 66.553 274.380,64.312 272.429,63.780 272.413 C 63.549 272.406,63.144 272.616,62.880 272.880 M62.067 275.867 C 62.030 276.564,61.884 277.464,61.741 277.867 C 61.543 278.428,61.597 278.495,61.968 278.153 C 62.252 277.892,62.388 277.058,62.295 276.153 C 62.152 274.773,62.127 274.742,62.067 275.867 M66.800 275.129 C 66.800 275.282,70.940 279.544,76.000 284.600 C 81.060 289.656,85.200 293.656,85.200 293.488 C 85.200 293.320,81.060 289.058,76.000 284.017 C 70.940 278.976,66.800 274.977,66.800 275.129 M60.159 285.362 C 60.041 285.671,60.007 286.526,60.083 287.262 C 60.206 288.435,60.247 288.366,60.415 286.700 C 60.611 284.752,60.539 284.374,60.159 285.362 M59.467 289.067 C 59.320 289.213,59.200 289.963,59.200 290.733 C 59.200 292.497,59.672 292.101,59.822 290.212 C 59.939 288.737,59.905 288.628,59.467 289.067 M58.600 295.200 C 58.444 296.547,58.401 297.734,58.505 297.838 C 58.609 297.942,58.819 296.922,58.971 295.571 C 59.124 294.221,59.167 293.034,59.067 292.933 C 58.966 292.833,58.756 293.853,58.600 295.200 M85.600 293.926 C 85.600 294.075,95.004 303.602,106.497 315.097 C 125.738 334.341,127.355 336.061,126.894 336.799 C 126.618 337.239,126.555 337.600,126.754 337.600 C 127.109 337.600,127.600 336.665,127.600 335.987 C 127.600 335.797,118.150 326.193,106.600 314.647 C 95.050 303.101,85.600 293.777,85.600 293.926 M57.873 299.353 C 57.723 299.745,57.618 300.636,57.640 301.333 C 57.679 302.567,57.690 302.559,58.049 301.027 C 58.445 299.337,58.324 298.179,57.873 299.353 M56.064 310.667 C 56.029 311.364,55.896 312.264,55.770 312.667 C 55.553 313.359,55.565 313.360,55.994 312.691 C 56.245 312.302,56.377 311.402,56.289 310.691 L 56.128 309.400 56.064 310.667 M55.021 316.100 C 54.866 317.475,54.662 319.140,54.569 319.800 L 54.399 321.000 54.770 319.883 C 55.205 318.569,55.782 313.600,55.498 313.600 C 55.391 313.600,55.176 314.725,55.021 316.100 M53.264 327.374 C 52.762 331.462,52.684 339.364,53.135 340.504 C 53.288 340.890,53.344 339.184,53.259 336.712 C 53.174 334.240,53.326 330.358,53.595 328.084 C 53.864 325.811,54.005 323.871,53.907 323.773 C 53.809 323.676,53.520 325.296,53.264 327.374 M123.200 338.000 L 121.400 338.280 123.000 338.334 C 123.880 338.363,124.870 338.213,125.200 338.000 C 125.530 337.787,125.620 337.637,125.400 337.666 C 125.180 337.696,124.190 337.846,123.200 338.000 M118.400 338.821 C 117.970 339.114,118.254 339.154,119.400 338.962 C 121.384 338.630,121.704 338.398,120.167 338.406 C 119.525 338.409,118.730 338.596,118.400 338.821 M113.400 339.600 L 111.800 339.886 113.200 339.915 C 113.970 339.931,114.960 339.789,115.400 339.600 C 116.343 339.195,115.662 339.195,113.400 339.600 M109.000 340.400 L 107.800 340.705 109.200 340.747 C 109.970 340.769,110.870 340.613,111.200 340.400 C 111.939 339.923,110.876 339.923,109.000 340.400 M104.421 341.179 C 104.046 341.416,104.470 341.465,105.621 341.318 C 106.599 341.192,107.475 341.025,107.567 340.945 C 107.942 340.619,104.955 340.840,104.421 341.179 M99.400 342.000 L 97.800 342.286 99.200 342.337 C 99.970 342.365,100.870 342.213,101.200 342.000 C 101.855 341.577,101.762 341.577,99.400 342.000 M94.400 342.812 C 93.981 343.091,94.342 343.133,95.600 342.950 C 97.841 342.625,98.160 342.398,96.367 342.406 C 95.615 342.409,94.730 342.592,94.400 342.812 M54.400 343.063 C 54.400 343.290,54.760 343.802,55.200 344.200 C 55.640 344.598,56.000 344.799,56.000 344.645 C 56.000 344.492,55.640 343.980,55.200 343.508 C 54.760 343.036,54.400 342.835,54.400 343.063 M87.719 343.760 C 85.915 344.018,84.295 344.382,84.119 344.569 C 83.944 344.757,84.610 344.782,85.600 344.625 C 86.590 344.468,88.252 344.206,89.294 344.042 C 90.817 343.803,92.706 343.078,91.367 343.246 C 91.165 343.272,89.524 343.503,87.719 343.760 M80.200 345.210 C 79.666 345.447,79.998 345.486,81.200 345.327 C 82.190 345.196,83.075 345.024,83.167 344.944 C 83.514 344.643,80.964 344.872,80.200 345.210 M75.400 346.000 L 73.800 346.286 75.200 346.337 C 75.970 346.365,76.870 346.213,77.200 346.000 C 77.855 345.577,77.762 345.577,75.400 346.000 M59.465 346.900 C 59.691 347.272,69.545 347.242,72.000 346.862 C 73.031 346.702,70.699 346.587,66.541 346.591 C 62.548 346.596,59.364 346.735,59.465 346.900 " stroke="none" fill="#64ac64" fill-rule="evenodd"></path></g></svg>