<svg id="svg" version="1.1" xmlns="http://www.w3.org/2000/svg" xmlns:xlink="http://www.w3.org/1999/xlink" width="400" height="400" viewBox="0, 0, 400,400"><g id="svgg"><path id="path0" d="M135.742 0.246 C 126.109 1.541,116.016 3.421,116.016 3.921 C 116.016 4.087,115.664 4.132,115.234 4.019 C 114.805 3.907,114.453 3.995,114.453 4.215 C 114.453 4.435,114.102 4.522,113.672 4.410 C 113.218 4.291,112.891 4.398,112.891 4.665 C 112.891 4.918,112.707 5.011,112.483 4.872 C 112.259 4.734,111.863 4.788,111.604 4.994 C 111.345 5.199,109.199 5.935,106.836 6.628 C 96.220 9.743,72.266 20.623,72.266 22.331 C 72.266 22.510,72.009 22.656,71.695 22.656 C 71.381 22.656,70.766 23.041,70.328 23.511 C 69.890 23.981,69.526 24.201,69.519 23.999 C 69.513 23.798,69.326 23.944,69.105 24.325 C 68.883 24.705,68.537 24.914,68.335 24.790 C 68.134 24.665,67.969 24.726,67.969 24.925 C 67.969 25.274,65.579 27.022,63.771 27.995 C 55.778 32.298,32.300 55.784,27.984 63.793 C 27.019 65.584,25.272 67.969,24.925 67.969 C 24.726 67.969,24.665 68.134,24.790 68.335 C 24.914 68.537,24.705 68.883,24.325 69.105 C 23.944 69.326,23.798 69.513,23.999 69.519 C 24.201 69.526,23.981 69.890,23.511 70.328 C 23.041 70.766,22.656 71.366,22.656 71.662 C 22.656 71.958,22.496 72.259,22.300 72.331 C 20.177 73.106,9.661 96.358,6.606 107.031 C 5.960 109.287,5.324 111.396,5.193 111.719 C 5.062 112.041,4.982 112.437,5.016 112.598 C 5.050 112.759,4.882 112.891,4.642 112.891 C 4.398 112.891,4.296 113.235,4.410 113.672 C 4.522 114.102,4.435 114.453,4.215 114.453 C 3.995 114.453,3.907 114.805,4.019 115.234 C 4.132 115.664,4.094 116.016,3.936 116.016 C 3.395 116.016,1.243 127.722,0.380 135.362 C -0.303 141.410,0.087 170.156,0.920 175.195 C 2.207 182.975,3.610 189.844,3.914 189.844 C 4.084 189.844,4.132 190.195,4.019 190.625 C 3.907 191.055,4.006 191.406,4.239 191.406 C 4.472 191.406,4.562 191.670,4.438 191.992 C 4.314 192.314,4.418 192.578,4.669 192.578 C 4.919 192.578,5.011 192.762,4.872 192.986 C 4.734 193.210,4.785 193.606,4.986 193.865 C 5.187 194.124,5.923 196.357,6.622 198.828 C 9.493 208.981,20.235 232.733,22.316 233.529 C 22.503 233.600,22.656 233.901,22.656 234.197 C 22.656 234.493,23.041 235.094,23.511 235.532 C 23.981 235.970,24.211 236.328,24.022 236.328 C 23.833 236.328,24.020 236.586,24.437 236.902 C 24.854 237.217,25.073 237.481,24.924 237.488 C 24.775 237.494,25.150 238.043,25.756 238.708 C 26.363 239.372,27.091 240.383,27.374 240.954 C 31.618 249.525,56.335 274.241,64.906 278.486 C 65.477 278.769,66.477 279.487,67.129 280.082 C 67.781 280.678,68.408 281.071,68.523 280.956 C 68.638 280.841,68.842 281.035,68.977 281.387 C 69.112 281.739,69.380 281.930,69.572 281.811 C 69.765 281.692,69.922 281.781,69.922 282.008 C 69.922 282.236,70.186 282.422,70.508 282.422 C 70.830 282.422,71.094 282.598,71.094 282.813 C 71.094 283.027,71.343 283.203,71.647 283.203 C 71.951 283.203,72.259 283.351,72.331 283.532 C 73.158 285.621,96.677 296.292,106.836 299.188 C 109.199 299.862,111.396 300.524,111.719 300.659 C 112.041 300.795,112.437 300.877,112.598 300.843 C 112.759 300.809,112.891 300.978,112.891 301.217 C 112.891 301.461,113.235 301.564,113.672 301.449 C 114.102 301.337,114.453 301.425,114.453 301.645 C 114.453 301.864,114.886 301.961,115.416 301.860 C 115.946 301.759,116.429 301.817,116.490 301.990 C 116.758 302.746,130.963 305.124,139.798 305.892 C 146.816 306.502,166.228 306.142,172.266 305.289 C 181.457 303.991,189.453 302.429,189.453 301.933 C 189.453 301.770,189.805 301.728,190.234 301.840 C 190.664 301.952,191.016 301.864,191.016 301.645 C 191.016 301.425,191.367 301.337,191.797 301.449 C 192.251 301.568,192.578 301.461,192.578 301.194 C 192.578 300.942,192.747 300.839,192.953 300.967 C 193.159 301.094,193.642 301.021,194.027 300.804 C 194.412 300.587,197.100 299.679,200.000 298.787 C 206.130 296.903,210.447 295.230,218.504 291.619 L 224.313 289.015 225.333 289.918 C 225.894 290.414,249.829 314.287,278.522 342.969 C 307.216 371.650,331.697 395.974,332.925 397.021 L 335.157 398.924 342.676 391.665 C 346.812 387.673,361.264 373.432,374.792 360.020 L 399.389 335.633 397.058 332.969 C 395.776 331.504,371.348 306.916,342.773 278.329 C 314.199 249.743,290.412 225.892,289.913 225.328 L 289.005 224.302 291.714 218.304 C 295.263 210.446,296.827 206.405,298.798 200.000 C 299.690 197.100,300.595 194.412,300.809 194.027 C 301.023 193.642,301.094 193.159,300.967 192.953 C 300.839 192.747,300.940 192.578,301.191 192.578 C 301.441 192.578,301.545 192.314,301.421 191.992 C 301.298 191.670,301.387 191.406,301.620 191.406 C 301.862 191.406,301.964 190.986,301.858 190.430 C 301.755 189.893,301.799 189.453,301.956 189.453 C 302.596 189.453,304.735 177.303,305.691 168.238 C 306.384 161.674,306.474 145.698,305.857 138.867 C 305.118 130.679,302.594 116.016,301.924 116.016 C 301.766 116.016,301.728 115.664,301.840 115.234 C 301.952 114.805,301.864 114.453,301.645 114.453 C 301.425 114.453,301.337 114.102,301.449 113.672 C 301.568 113.218,301.461 112.891,301.194 112.891 C 300.942 112.891,300.849 112.707,300.987 112.483 C 301.126 112.259,301.067 111.863,300.857 111.604 C 300.646 111.345,299.828 108.943,299.039 106.267 C 295.958 95.827,285.204 72.266,283.519 72.266 C 283.345 72.266,283.203 72.009,283.203 71.695 C 283.203 71.381,282.818 70.766,282.348 70.328 C 281.878 69.890,281.648 69.531,281.837 69.531 C 282.026 69.531,281.839 69.273,281.422 68.958 C 281.005 68.642,280.788 68.379,280.938 68.372 C 281.089 68.365,280.819 67.935,280.339 67.416 C 279.858 66.898,279.211 65.975,278.901 65.366 C 274.294 56.317,249.586 31.611,240.494 26.961 C 239.884 26.649,238.972 26.011,238.467 25.543 C 237.962 25.075,237.454 24.786,237.338 24.902 C 237.222 25.017,237.017 24.824,236.882 24.472 C 236.747 24.120,236.478 23.931,236.284 24.050 C 236.091 24.170,235.827 23.993,235.698 23.658 C 235.569 23.322,235.233 23.047,234.952 23.047 C 234.670 23.047,234.382 22.899,234.310 22.718 C 233.462 20.577,209.811 9.793,199.023 6.628 C 196.660 5.935,194.515 5.199,194.255 4.994 C 193.996 4.788,193.601 4.734,193.376 4.872 C 193.152 5.011,192.969 4.918,192.969 4.665 C 192.969 4.398,192.642 4.291,192.188 4.410 C 191.758 4.522,191.406 4.435,191.406 4.215 C 191.406 3.995,191.055 3.907,190.625 4.019 C 190.195 4.132,189.844 4.090,189.844 3.926 C 189.844 3.556,185.614 2.636,177.734 1.293 C 171.992 0.315,140.988 -0.458,135.742 0.246 M162.500 63.847 C 235.144 73.603,264.828 164.197,211.946 214.753 C 156.104 268.139,64.658 228.663,64.658 151.172 C 64.658 97.821,110.543 56.870,162.500 63.847 " stroke="none" fill="#349c34" fill-rule="evenodd"></path><path id="path1" d="" stroke="none" fill="#389c34" fill-rule="evenodd"></path><path id="path2" d="" stroke="none" fill="#389c34" fill-rule="evenodd"></path><path id="path3" d="" stroke="none" fill="#389c34" fill-rule="evenodd"></path><path id="path4" d="" stroke="none" fill="#389c34" fill-rule="evenodd"></path></g></svg>